<svg id="Group_394" data-name="Group 394" xmlns="http://www.w3.org/2000/svg" xmlns:xlink="http://www.w3.org/1999/xlink" width="15.079" height="15.079" viewBox="0 0 15.079 15.079">
  <defs>
    <clipPath id="clip-path">
      <rect id="Rectangle_264" data-name="Rectangle 264" width="15.079" height="15.079" fill="#fff"/>
    </clipPath>
  </defs>
  <g id="Group_393" data-name="Group 393" transform="translate(0 0)" clip-path="url(#clip-path)">
    <path id="Path_6713" data-name="Path 6713" d="M9.364,14.846a.557.557,0,0,1-.465-.367L7.288,11.03c-.344-.736-.685-1.474-1.036-2.206A.512.512,0,0,0,6.027,8.6Q3.227,7.279.419,5.974A.606.606,0,0,1,0,5.378c.007-.258.166-.439.48-.55l10.73-3.787c.922-.325,1.845-.648,2.765-.979a.614.614,0,0,1,.708.108.622.622,0,0,1,.1.711Q12.4,7.62,10.026,14.362a.636.636,0,0,1-.662.484M2.09,5.479c.081.041.127.067.175.089,1.359.634,2.719,1.266,4.075,1.9a.208.208,0,0,0,.286-.054c.52-.53,1.049-1.052,1.573-1.579a.574.574,0,1,1,.823.8q-.787.8-1.59,1.587a.219.219,0,0,0-.048.3q.955,2.028,1.9,4.061c.024.051.051.1.089.175L13.341,1.508,2.09,5.479" transform="translate(-0.004 0.236)" fill="#fff"/>
  </g>
</svg>
