<svg xmlns="http://www.w3.org/2000/svg" xmlns:xlink="http://www.w3.org/1999/xlink" width="184.074" height="161.246" viewBox="0 0 184.074 161.246">
  <defs>
    <linearGradient id="linear-gradient" x1="-0.047" y1="0.206" x2="0.906" y2="0.835" gradientUnits="objectBoundingBox">
      <stop offset="0" stop-color="#b2e8ff"/>
      <stop offset="0.537" stop-color="#b4ceff"/>
      <stop offset="1" stop-color="#f3caff"/>
    </linearGradient>
    <filter id="Ellipse_14" x="12.641" y="0" width="161.246" height="161.246" filterUnits="userSpaceOnUse">
      <feOffset dx="3" dy="3" input="SourceAlpha"/>
      <feGaussianBlur stdDeviation="3" result="blur"/>
      <feFlood flood-opacity="0.161"/>
      <feComposite operator="in" in2="blur"/>
      <feComposite in="SourceGraphic"/>
    </filter>
    <filter id="我要報名" x="42.82" y="60.544" width="98" height="36" filterUnits="userSpaceOnUse">
      <feOffset dx="2" dy="2" input="SourceAlpha"/>
      <feGaussianBlur stdDeviation="1" result="blur-2"/>
      <feFlood flood-opacity="0.161"/>
      <feComposite operator="in" in2="blur-2"/>
      <feComposite in="SourceGraphic"/>
    </filter>
    <clipPath id="clip-path">
      <rect id="Rectangle_292" data-name="Rectangle 292" width="34.633" height="56.551" fill="none" stroke="#707070" stroke-linejoin="round" stroke-width="1"/>
    </clipPath>
    <clipPath id="clip-path-2">
      <rect id="Rectangle_34" data-name="Rectangle 34" width="37.438" height="34.322" fill="#fbfbfc" stroke="#6f7dc4" stroke-linejoin="round" stroke-width="1"/>
    </clipPath>
    <clipPath id="clip-path-3">
      <rect id="Rectangle_34-2" data-name="Rectangle 34" width="37.281" height="34.178" fill="#fbfbfb" stroke="#6f7dc4" stroke-linejoin="round" stroke-width="1"/>
    </clipPath>
  </defs>
  <g id="Group_446" data-name="Group 446" transform="translate(-1203.871 -911.93)">
    <g id="Group_437" data-name="Group 437" transform="translate(1222.512 917.93)">
      <g transform="matrix(1, 0, 0, 1, -18.64, -6)" filter="url(#Ellipse_14)">
        <g id="Ellipse_14-2" data-name="Ellipse 14" transform="translate(18.64 6)" stroke="#6f7dc4" stroke-linejoin="round" stroke-width="2" fill="url(#linear-gradient)">
          <circle cx="71.623" cy="71.623" r="71.623" stroke="none"/>
          <circle cx="71.623" cy="71.623" r="70.623" fill="none"/>
        </g>
      </g>
    </g>
    <g transform="matrix(1, 0, 0, 1, 1203.87, 911.93)" filter="url(#我要報名)">
      <text id="我要報名-2" data-name="我要報名" transform="translate(43.82 84.54)" fill="#fff" font-size="22" font-family="PingFangTC-Semibold, PingFang TC" font-weight="600" letter-spacing="0.05em"><tspan x="0" y="0">我要報名</tspan></text>
    </g>
    <g id="Group_438" data-name="Group 438" transform="translate(1229.182 924.601)">
      <g id="Ellipse_14-3" data-name="Ellipse 14" transform="translate(0 0)" fill="none" stroke="#fbfbfb" stroke-linejoin="round" stroke-width="1">
        <circle cx="64.953" cy="64.953" r="64.953" stroke="none"/>
        <circle cx="64.953" cy="64.953" r="64.453" fill="none"/>
      </g>
    </g>
    <g id="Group_439" data-name="Group 439" transform="matrix(0.809, -0.588, 0.588, 0.809, 1310.223, 1020.57)">
      <g id="Group_428" data-name="Group 428" transform="translate(0 0)" clip-path="url(#clip-path)">
        <path id="Path_6765" data-name="Path 6765" d="M29.979,36.219a2.548,2.548,0,0,1,1.5,2.7c-.044,1.37-.01,2.742-.01,4.114A2.312,2.312,0,0,1,29,45.532q-9.1,0-18.192,0a2.32,2.32,0,0,1-2.565-2.578c0-1.386.015-2.773-.006-4.159a2.747,2.747,0,0,1,.544-1.9c-1.086-1.508-2.161-3-3.239-4.5Q3.212,29.175.884,25.953a4.429,4.429,0,0,1,1.638-6.692,4.38,4.38,0,0,1,4.559.679c.743.575,1.461,1.18,2.289,1.852,0-.863,0-1.615,0-2.367q0-7.725,0-15.449a3.978,3.978,0,0,1,7.885-.749,4.456,4.456,0,0,1,.054.819q.006,3.222,0,6.445v.48a3.838,3.838,0,0,1,4.32,1.3,3.814,3.814,0,0,1,5.033,1.253,3.948,3.948,0,0,1,2.655-.276,3.362,3.362,0,0,1,2.639,3.3q.016,6.765,0,13.529a10.747,10.747,0,0,1-1.979,6.135M11.664,13.946h0q0,4.823,0,9.645a1.54,1.54,0,0,1-.747,1.591c-.652.326-1.122-.06-1.6-.45-1.234-1.018-2.465-2.04-3.725-3.025A1.961,1.961,0,0,0,2.33,22.8a2.334,2.334,0,0,0,.428,1.819Q5.58,28.531,8.4,32.439c.8,1.111,1.605,2.222,2.434,3.314a.872.872,0,0,0,.6.318q7.657.027,15.315.007a.779.779,0,0,0,.513-.211,8.016,8.016,0,0,0,2.381-5.489c.051-4.586.021-9.174.017-13.761a1.183,1.183,0,0,0-1.287-1.182,1.2,1.2,0,0,0-1.288,1.186c0,.549,0,1.1,0,1.646,0,.122,0,.244,0,.366a1.15,1.15,0,0,1-1.153,1.255A1.133,1.133,0,0,1,24.8,18.659c-.01-1.082,0-2.164-.007-3.246a1.293,1.293,0,1,0-2.586.015c.044.606.013,1.219.008,1.828-.006.808-.445,1.306-1.145,1.312s-1.149-.481-1.155-1.295c-.007-.975,0-1.951,0-2.926a1.3,1.3,0,0,0-2.591,0c-.01.99-.007,1.981-.016,2.971a1.15,1.15,0,1,1-2.289-.011c0-1.326,0-2.652,0-3.977q0-4.663,0-9.326a1.676,1.676,0,1,0-3.349.069q-.008,4.937,0,9.875M10.553,43.22H29.14V38.412H10.553Z" transform="translate(2.67 11.015)" fill="#6f7dc4" stroke="#707070" stroke-linejoin="round" stroke-width="1"/>
        <path id="Path_6766" data-name="Path 6766" d="M3.343,2.307c-.7,0-1.4.008-2.1,0a1.152,1.152,0,1,1-.013-2.3q2.1-.016,4.2.007A1.111,1.111,0,0,1,6.643,1.151,1.13,1.13,0,0,1,5.4,2.305c-.684.01-1.369,0-2.054,0" transform="translate(22.946 14.337)" fill="#6f7dc4" stroke="#707070" stroke-linejoin="round" stroke-width="1"/>
        <path id="Path_6767" data-name="Path 6767" d="M3.36,0C4.029,0,4.7,0,5.368,0a1.158,1.158,0,1,1-.013,2.3q-2.031.01-4.062,0A1.144,1.144,0,0,1,0,1.15C0,.451.5.013,1.306,0,1.99,0,2.675,0,3.36,0" transform="translate(2.387 14.338)" fill="#6f7dc4" stroke="#707070" stroke-linejoin="round" stroke-width="1"/>
        <path id="Path_6768" data-name="Path 6768" d="M1.331,0a2.9,2.9,0,0,1,.676.4C3.015,1.375,4,2.371,4.983,3.367A1.159,1.159,0,0,1,5.057,5.04a1.137,1.137,0,0,1-1.671-.019C2.366,4.018,1.359,3,.352,1.986A1.107,1.107,0,0,1,.114.681,1.2,1.2,0,0,1,1.331,0" transform="translate(6.027 5.521)" fill="#6f7dc4" stroke="#707070" stroke-linejoin="round" stroke-width="1"/>
        <path id="Path_6769" data-name="Path 6769" d="M5.446,1.205a3.717,3.717,0,0,1-.458.8C4.017,3.015,3.022,4,2.026,4.983a1.148,1.148,0,0,1-1.7.054A1.164,1.164,0,0,1,.393,3.363c.983-1,1.977-1.983,2.969-2.97A1.122,1.122,0,0,1,4.7.111a1.3,1.3,0,0,1,.75,1.094" transform="translate(20.574 5.526)" fill="#6f7dc4" stroke="#707070" stroke-linejoin="round" stroke-width="1"/>
        <path id="Path_6770" data-name="Path 6770" d="M0,3.291c0-.685,0-1.37,0-2.055A1.145,1.145,0,1,1,2.289,1.2q.014,2.147,0,4.293A1.118,1.118,0,0,1,1.142,6.655,1.125,1.125,0,0,1,.006,5.483c-.011-.731,0-1.462,0-2.192" transform="translate(14.843 1.881)" fill="#6f7dc4" stroke="#707070" stroke-linejoin="round" stroke-width="1"/>
        <path id="Path_6771" data-name="Path 6771" d="M9.372,11.654q0-4.937,0-9.875a1.676,1.676,0,1,1,3.349-.069q.007,4.663,0,9.326c0,1.326,0,2.652,0,3.977a1.15,1.15,0,1,0,2.289.011c.009-.991.006-1.981.016-2.972a1.209,1.209,0,0,1,1.3-1.275,1.206,1.206,0,0,1,1.293,1.278c.006.975-.006,1.951,0,2.926.006.814.448,1.3,1.155,1.295s1.139-.5,1.145-1.312c0-.61.035-1.222-.009-1.828a1.293,1.293,0,1,1,2.586-.015c0,1.082,0,2.164.007,3.246a1.133,1.133,0,0,0,1.131,1.227,1.15,1.15,0,0,0,1.153-1.255c0-.122,0-.244,0-.366,0-.549,0-1.1,0-1.646a1.2,1.2,0,0,1,1.288-1.186,1.183,1.183,0,0,1,1.287,1.182c0,4.587.033,9.174-.017,13.761a8.014,8.014,0,0,1-2.381,5.489.779.779,0,0,1-.513.211Q16.8,33.8,9.142,33.778a.873.873,0,0,1-.6-.318c-.829-1.091-1.631-2.2-2.434-3.314Q3.284,26.241.465,22.33a2.332,2.332,0,0,1-.428-1.819,1.961,1.961,0,0,1,3.272-1.1c1.26.985,2.492,2.007,3.726,3.025.473.39.943.776,1.6.45A1.54,1.54,0,0,0,9.377,21.3c-.008-3.215,0-6.43,0-9.645Z" transform="translate(4.963 13.307)" fill="#fff" stroke="#707070" stroke-linejoin="round" stroke-width="1"/>
        <rect id="Rectangle_291" data-name="Rectangle 291" width="18.587" height="4.808" transform="translate(13.223 49.426)" fill="#fff" stroke="#707070" stroke-linejoin="round" stroke-width="1"/>
      </g>
    </g>
    <g id="Group_443" data-name="Group 443" transform="translate(1350.507 915.279)">
      <g id="Group_53" data-name="Group 53" transform="translate(0 0)" clip-path="url(#clip-path-2)">
        <path id="Path_29" data-name="Path 29" d="M35.65,18.267c-13.73-.083-14.938-1.29-15.019-15.019-.083,13.73-1.29,14.936-15.021,15.019,13.731.083,14.938,1.29,15.021,15.019.082-13.73,1.29-14.936,15.019-15.019" transform="translate(1.788 1.035)" fill="#fbfbfc" stroke="#6f7dc4" stroke-linejoin="round" stroke-width="1"/>
        <path id="Path_30" data-name="Path 30" d="M13.681,6.841C7.428,6.8,6.878,6.254,6.84,0,6.8,6.254,6.253,6.8,0,6.841c6.253.038,6.8.587,6.84,6.841.038-6.254.588-6.8,6.841-6.841" transform="translate(0 0)" fill="#fbfbfc" stroke="#6f7dc4" stroke-linejoin="round" stroke-width="1"/>
      </g>
    </g>
    <g id="Group_444" data-name="Group 444" transform="translate(1203.871 1032.143)">
      <g id="Group_53-2" data-name="Group 53" transform="translate(0 0)" clip-path="url(#clip-path-3)">
        <path id="Path_29-2" data-name="Path 29" d="M35.525,18.2C21.852,18.122,20.649,16.92,20.568,3.248,20.485,16.92,19.284,18.122,5.61,18.2c13.674.083,14.875,1.284,14.958,14.957.081-13.672,1.284-14.874,14.957-14.957" transform="translate(1.757 1.017)" fill="#fbfbfb" stroke="#6f7dc4" stroke-linejoin="round" stroke-width="1"/>
        <path id="Path_30-2" data-name="Path 30" d="M13.624,6.813C7.4,6.774,6.849,6.228,6.811,0,6.774,6.228,6.227,6.774,0,6.813c6.227.038,6.774.584,6.811,6.813C6.849,7.4,7.4,6.851,13.624,6.813" transform="translate(0 0)" fill="#fbfbfb" stroke="#6f7dc4" stroke-linejoin="round" stroke-width="1"/>
      </g>
    </g>
  </g>
</svg>
