<svg id="Group_412" data-name="Group 412" xmlns="http://www.w3.org/2000/svg" xmlns:xlink="http://www.w3.org/1999/xlink" width="28.734" height="28.74" viewBox="0 0 28.734 28.74">
  <defs>
    <clipPath id="clip-path">
      <rect id="Rectangle_281" data-name="Rectangle 281" width="28.734" height="28.74" fill="#b8cafe"/>
    </clipPath>
  </defs>
  <g id="Group_411" data-name="Group 411" clip-path="url(#clip-path)">
    <path id="Path_6731" data-name="Path 6731" d="M28.735,13.354v2.022c-.061.452-.107.907-.186,1.356a14.226,14.226,0,0,1-4.441,8.2,14.021,14.021,0,0,1-7.217,3.59c-.5.089-1.013.149-1.519.222H13.351c-.332-.043-.665-.08-1-.13a13.838,13.838,0,0,1-6.976-3.033A14.087,14.087,0,0,1,.129,12.363,13.315,13.315,0,0,1,3.451,5.017,14.1,14.1,0,0,1,16.359.127a13.411,13.411,0,0,1,6.492,2.636,14.178,14.178,0,0,1,5.66,9.071c.093.5.15,1.013.224,1.52M14.351,23.478q3.9,0,7.8,0c.457,0,.611-.131.57-.583a11.793,11.793,0,0,0-.266-1.936A8.366,8.366,0,0,0,5.993,22.818c0,.568.088.66.668.66h7.691m0-9.82A4.2,4.2,0,1,0,10.15,9.393a4.209,4.209,0,0,0,4.206,4.265m7.193.52v-.319q0-1.753,0-3.506c0-.332-.137-.517-.409-.534a6.191,6.191,0,0,0-.729,0,.411.411,0,0,0-.4.422.406.406,0,0,0,.4.423c.089.009.178.013.288.021v.526q0,1.655,0,3.309c0,.4.133.531.539.534.206,0,.412.005.617-.008a.376.376,0,0,0,.371-.353.384.384,0,0,0-.281-.456,2.669,2.669,0,0,0-.391-.059m-.428-6.112a.4.4,0,0,0-.426.414.427.427,0,0,0,.418.433.446.446,0,0,0,.435-.425.424.424,0,0,0-.428-.422" transform="translate(0 0)" fill="#b8cafe"/>
  </g>
</svg>
