<svg id="Group_414" data-name="Group 414" xmlns="http://www.w3.org/2000/svg" width="139.509" height="56.396" viewBox="0 0 139.509 56.396">
  <path id="Path_6735" data-name="Path 6735" d="M52.579,37.333a5.366,5.366,0,0,0,.352-2.025V33.889c-.05-1-.229-1.087-1.264-1.141-.01,0-6.53,0-7.363,0l-.008,0c-.052,0-.087-.01-.135-.014-.149,2.174-.252,4.366-.264,6.618.109,2.057.918,2.764,2.49,3.679.654.26,1.306.489,1.958.735V41.36a.863.863,0,0,1,.246-.682,1.917,1.917,0,0,1,.916-.33,3.819,3.819,0,0,0,1.655-.719,4.331,4.331,0,0,0,1.417-2.3m.352-9.911V24.743c-.05-1-.235-1.085-1.252-1.143l-6.2,0-.008,0a1.335,1.335,0,0,1-.244-.042q-.408,2.48-.694,5h7.143c1.031-.054,1.21-.139,1.26-1.137m-1.26-8.009c1.031-.054,1.21-.139,1.26-1.133V15.4a.736.736,0,0,0-.191-.539.832.832,0,0,0-.576-.24H52.08a1.79,1.79,0,0,0-.368.038c-1.131.221-3.245.59-4.8.87-.334,1.29-.63,2.582-.906,3.879,1.435,0,4.744,0,5.666,0M92.747,7.35A107.339,107.339,0,0,0,56.337,0c-2.86.068-4.517,1.067-5.2,2.818-1.125,2.772-2.1,5.519-2.957,8.267,1.566-.225,3.063-.443,3.452-.525,1.3-.324,1.246-.441,1.3-1.377,0-.4,0-.835,0-1.262V6.408a1.528,1.528,0,0,1,.4-1.224,1.786,1.786,0,0,1,1.25-.326c.008,0,.032,0,.018,0h1.657a1.85,1.85,0,0,1,1.256.326,1.516,1.516,0,0,1,.4,1.224c0,.447.006,1.56.006,2.023.038.5.117.5.439.535a3.211,3.211,0,0,0,.761-.137c.552-.153,2.4-.775,3.915-1.375a1.887,1.887,0,0,1,.8-.229,1.038,1.038,0,0,1,.888.646c.358.6,1.057,2.007,1.153,2.186l.01.022a1.2,1.2,0,0,1,.117.457.677.677,0,0,1-.435.644A11.2,11.2,0,0,1,64.5,11.6c-.787.278-1.7.541-2.226.666-1.1.33-1.938.531-3.059.807-1.047.288-1.266.415-1.3,1.423v3.021c.05,1,.219,1.077,1.258,1.131,1.057,0,5.221,0,5.221,0a1.837,1.837,0,0,1,1.262.326,1.512,1.512,0,0,1,.4,1.22v1.1a1.532,1.532,0,0,1-.4,1.23,1.873,1.873,0,0,1-1.258.318H59.173c-1.045.058-1.2.131-1.258,1.141v3.434c.05,1,.219,1.081,1.258,1.137H64.4a1.862,1.862,0,0,1,1.258.318,1.529,1.529,0,0,1,.4,1.22c0,.717,0,.882,0,1.113a1.517,1.517,0,0,1-.4,1.22,1.846,1.846,0,0,1-1.244.318H59.157c-1.023.052-1.194.149-1.242,1.085,0,.751,0,1.4,0,1.4a10.449,10.449,0,0,1-1.272,5.33,8.535,8.535,0,0,1-4.03,3.987,8.84,8.84,0,0,1-1.053.376c3.269,1.119,6.526,2.087,9.8,2.874a11.643,11.643,0,0,1-3.776,7c-.441.3-.507.489-.3.9.062.119.137.25.211.374a.782.782,0,0,0,1.133.157,20.352,20.352,0,0,0,8.854-7.135,110.819,110.819,0,0,0,17.363,1.679C87,50.8,88.007,49.7,89.015,47.727A95.09,95.09,0,0,0,96.169,11.7c-.119-1.9-.851-3-3.422-4.352M77.667,38.969c-.5,0-.7,0-1.751,0a1.9,1.9,0,0,1-1.26-.322,1.512,1.512,0,0,1-.4-1.224c0-.229,0-1.151,0-1.524a1.518,1.518,0,0,1,.405-1.226,1.869,1.869,0,0,1,1.258-.316c.568,0,.664,0,1.157,0a3.185,3.185,0,0,0,2.59-.861,3.759,3.759,0,0,0,.622-2.458,12.992,12.992,0,0,0-1.912-5.741,20.767,20.767,0,0,0-2.683-3.436,1.678,1.678,0,0,1-.586-1.129,2.545,2.545,0,0,1,.2-.853c.68-1.956,3.438-10.133,3.492-10.29l0-.038a1.012,1.012,0,0,0-.139-.01H72.55c-.1,0-.1,0-.1.006s0,0,0,.083c0,2.969,0,27.561,0,34.125a1.51,1.51,0,0,1-.4,1.22,1.859,1.859,0,0,1-1.256.318c-.692,0-.9.006-1.385.006a1.887,1.887,0,0,1-1.258-.324,1.525,1.525,0,0,1-.4-1.228c0-.543,0-37.128,0-37.128a1.5,1.5,0,0,1,.407-1.224,1.873,1.873,0,0,1,1.258-.318h11.5c1.057-.026,1.5.31,2.246,1.425.044.06.091.119.392.537a2.16,2.16,0,0,1,.55,1.288,3.117,3.117,0,0,1-.193.93c-.785,2.409-3.363,9.37-3.752,10.233a2.618,2.618,0,0,0-.334.868c0,.153.083.334.443.668a13.987,13.987,0,0,1,3.836,5.7,14.66,14.66,0,0,1,.773,4.672c-.012,4.634-1.85,7.606-7.214,7.572" transform="translate(43.339 0.001)" fill="#260954"/>
  <path id="Path_6736" data-name="Path 6736" d="M25.77,12.771h1.689c1.045,0,1.451-.274,1.451-1.334V10.91c0-1.043.4-1.334,1.461-1.334H57.528c1.055,0,1.455.284,1.455,1.341v.509c0,1.069.407,1.343,1.469,1.343h1.685c1.051,0,1.445-.274,1.445-1.336V9.279a3.6,3.6,0,0,0-1.22-2.959,5.532,5.532,0,0,0-3.526-.962H46.864s-.008-1.027-.008-1.7c0-1.061-.4-1.337-1.451-1.337H42.368c-1.051,0-1.467.276-1.467,1.335v1.7H29.067a5.508,5.508,0,0,0-3.512.962,3.6,3.6,0,0,0-1.25,2.959v2.148c0,1.073.409,1.343,1.465,1.343m37.611,12.1A68.1,68.1,0,0,1,50.04,22.254c-.56-.248-.485-.582.024-.986a85.551,85.551,0,0,0,7.107-5.2c.262-.211.413-.32.562-.451a.778.778,0,0,0-.024-1.212c-.225-.195-.469-.36-1.339-.962-.475-.334-.972-.678-1.385-.956a3.375,3.375,0,0,0-2.029-.574H40.568a1.957,1.957,0,0,1-1.32-.407c-.457-.346-.884-.694-1.246-.982a.983.983,0,0,0-1.471.113c-.425.4-.986.831-2.035,1.659-1.149.9-1.767,1.423-3.1,2.307a56.42,56.42,0,0,1-6.038,3.088c-.513.195-.684.628-.276,1.047.278.292,1.558,1.485,2.309,2.184.489.409.833.388,1.522.076.584-.258,4.008-2.091,4.634-2.415a1.085,1.085,0,0,1,1.377.078c.3.256,2,1.612,3.373,2.611.439.358.513.731,0,.932a54.864,54.864,0,0,1-14.913,3.118c-.769.083-.906.447-.819.968.06.342.266,1.584.4,2.383.062.457.429.678,1.029.626,1.969-.195,4.925-.58,5.592-.765s.982.044.982.485V40.579a1.977,1.977,0,0,0,2.218,2.2H54.577a1.974,1.974,0,0,0,2.212-2.2V29.168c0-.588.358-.779.954-.646s2.816.56,4.354.8c.888.107,1.288.085,1.508-.646s.57-2.063.709-2.739-.193-.934-.934-1.071M39.145,15.978H48.13c.6,0,.731.3.346.658a43.044,43.044,0,0,1-3.768,2.56,1.567,1.567,0,0,1-1.787.006c-1.655-.95-3.712-2.355-4.03-2.6-.382-.288-.266-.626.254-.626M52.077,32.141v6.608c0,.236-.074.288-.3.288H35.607c-.215,0-.29-.052-.29-.284V32.141c0-.235.078-.288.3-.288H51.781c.223,0,.3.054.3.288m1.544-4.219H34.155c-.33,0-.191-.231.044-.278a43.974,43.974,0,0,0,7.7-1.981c.449-.157.886-.352,1.345-.56a2.081,2.081,0,0,1,1.956.087,50.382,50.382,0,0,0,8.391,2.417c.437.1.4.316.036.316" transform="translate(22.259 2.298)" fill="#260954"/>
  <path id="Path_6737" data-name="Path 6737" d="M42.91,23.575a65.055,65.055,0,0,0-8.6-5.612.974.974,0,0,0-1.23.1c-.6.521-1.518,1.332-1.836,1.665a.849.849,0,0,0,.083,1.347,61.621,61.621,0,0,1,8.214,5.734c.236.24.55.294.952-.01.8-.618,2.208-1.964,2.486-2.236.378-.368.4-.646-.068-.992M41.847,5.865c-1.192,0-11.829-.01-11.829-.01s0-1.3,0-2.188c0-1.063-.4-1.345-1.457-1.345H25.382c-1.047,0-1.461.274-1.461,1.334v2.2l-12.258.01a5.566,5.566,0,0,0-3.524.976A3.6,3.6,0,0,0,6.88,9.814v3.631c0,.574-.175.715-.819.562-1.32-.294-3.12-.7-3.494-.795-1.018-.266-1.479-.1-1.757.928-.074.286-.352,1.33-.471,2C.156,17.175.52,17.521,1.549,17.7c.539.1,3.118.676,4.525.99.527.151.733.334.721.771-.008.421-.024.853-.042,1.278,0,.127,0,.25-.012.37-.052.473-.109.562-.64.976A28.568,28.568,0,0,1,2.654,24.28c-.757.421-1.534.827-1.669.88-.96.435-1.218.863-.773,1.826.262.57.634,1.415.789,1.755.447.974.92,1.047,1.886.61a19.989,19.989,0,0,0,2.027-1.035c.221-.123.475-.268.713-.4.31-.163.455-.081.423.25-.3,3.035-.235,4.809-.94,6.334a2.88,2.88,0,0,1-1.862,1.6c-.964.433-1.224.845-.765,1.814.2.417.469,1.143.841,2.079.441.962.932,1.041,1.892.614a8.88,8.88,0,0,0,2.745-1.665C9.483,37.4,9.847,36.6,10.347,33.231a72.067,72.067,0,0,0,.811-8.3c0-.513.38-.719.715-.344.207.233,1.055,1.143,1.687,1.812.5.612.853.652,1.723.219a48.336,48.336,0,0,0,8.975-6.057c.324-.24.539-.058.539.244v7.218H16.675a1.971,1.971,0,0,0-2.216,2.206V40.574a1.977,1.977,0,0,0,2.216,2.212h21.4a1.979,1.979,0,0,0,2.212-2.212V30.23a1.969,1.969,0,0,0-2.212-2.206H29.547V18.207c0-1.063.409-1.339,1.465-1.339h9.9c1.061,0,1.467-.278,1.467-1.351V13.984c0-1.067-.405-1.341-1.467-1.341H14.362c-1.055,0-1.455.278-1.455,1.345l.006,1.544c0,1.063.4,1.335,1.449,1.335H21.1c.4,0,.574.233.292.517a28.554,28.554,0,0,1-8.917,5.586c-.668.233-1.1-.064-1.077-.753.058-1.481.133-2.993.133-4.535,0,0,.1-5.861.1-6.25,0-1.067.407-1.343,1.463-1.343H41.837c.767,0,1.467-.074,1.467-1.343V7.2c0-.817-.266-1.334-1.457-1.334m-22.7,26.018H35.261c.227,0,.292.062.292.29v6.584c0,.231-.07.284-.288.284H19.143c-.211,0-.286-.048-.286-.282V32.178c0-.233.068-.294.292-.294" transform="translate(-0.001 2.295)" fill="#260954"/>
</svg>
