<svg xmlns="http://www.w3.org/2000/svg" xmlns:xlink="http://www.w3.org/1999/xlink" width="248.281" height="286.692" viewBox="0 0 248.281 286.692">
  <defs>
    <clipPath id="clip-path">
      <path id="Path_6712" data-name="Path 6712" d="M64.641,192.43V335.775L188.781,264.1l124.14-71.672-124.14-71.673L64.641,49.083Z" transform="translate(-64.641 -49.083)" fill="#da9eef"/>
    </clipPath>
  </defs>
  <g id="Group_390" data-name="Group 390" transform="translate(-64.641 -49.083)">
    <g id="Group_389" data-name="Group 389" transform="translate(64.641 49.083)" clip-path="url(#clip-path)">
      <path id="Path_6569" data-name="Path 6569" d="M203.322,56.573a2.353,2.353,0,1,0,2.352-2.354,2.353,2.353,0,0,0-2.352,2.354" transform="translate(31.333 -45.529)" fill="#da9eef"/>
      <path id="Path_6570" data-name="Path 6570" d="M203.322,70.126a2.353,2.353,0,1,0,2.352-2.352,2.353,2.353,0,0,0-2.352,2.352" transform="translate(31.333 -36.148)" fill="#da9eef"/>
      <path id="Path_6571" data-name="Path 6571" d="M203.322,83.682a2.353,2.353,0,1,0,2.352-2.354,2.351,2.351,0,0,0-2.352,2.354" transform="translate(31.333 -26.768)" fill="#da9eef"/>
      <path id="Path_6572" data-name="Path 6572" d="M203.322,97.237a2.353,2.353,0,1,0,2.352-2.354,2.353,2.353,0,0,0-2.352,2.354" transform="translate(31.333 -17.387)" fill="#da9eef"/>
      <path id="Path_6573" data-name="Path 6573" d="M203.322,110.792a2.353,2.353,0,1,0,2.352-2.354,2.353,2.353,0,0,0-2.352,2.354" transform="translate(31.333 -8.007)" fill="#da9eef"/>
      <path id="Path_6574" data-name="Path 6574" d="M203.322,124.346a2.353,2.353,0,1,0,2.352-2.354,2.353,2.353,0,0,0-2.352,2.354" transform="translate(31.333 1.373)" fill="#da9eef"/>
      <path id="Path_6575" data-name="Path 6575" d="M203.322,137.9a2.353,2.353,0,1,0,2.352-2.354,2.353,2.353,0,0,0-2.352,2.354" transform="translate(31.333 10.754)" fill="#da9eef"/>
      <path id="Path_6576" data-name="Path 6576" d="M203.322,151.456a2.353,2.353,0,1,0,2.352-2.354,2.353,2.353,0,0,0-2.352,2.354" transform="translate(31.333 20.135)" fill="#da9eef"/>
      <path id="Path_6577" data-name="Path 6577" d="M203.322,165.011a2.353,2.353,0,1,0,2.352-2.354,2.351,2.351,0,0,0-2.352,2.354" transform="translate(31.333 29.515)" fill="#da9eef"/>
      <path id="Path_6578" data-name="Path 6578" d="M203.322,178.566a2.353,2.353,0,1,0,2.352-2.354,2.353,2.353,0,0,0-2.352,2.354" transform="translate(31.333 38.896)" fill="#da9eef"/>
      <path id="Path_6579" data-name="Path 6579" d="M203.322,192.12a2.353,2.353,0,1,0,2.352-2.354,2.353,2.353,0,0,0-2.352,2.354" transform="translate(31.333 48.276)" fill="#da9eef"/>
      <path id="Path_6580" data-name="Path 6580" d="M203.322,205.675a2.353,2.353,0,1,0,2.352-2.354,2.353,2.353,0,0,0-2.352,2.354" transform="translate(31.333 57.657)" fill="#da9eef"/>
      <path id="Path_6581" data-name="Path 6581" d="M203.322,219.23a2.353,2.353,0,1,0,2.352-2.354,2.353,2.353,0,0,0-2.352,2.354" transform="translate(31.333 67.037)" fill="#da9eef"/>
      <path id="Path_6582" data-name="Path 6582" d="M189.767,56.573a2.354,2.354,0,1,0,2.354-2.354,2.354,2.354,0,0,0-2.354,2.354" transform="translate(21.952 -45.529)" fill="#da9eef"/>
      <path id="Path_6583" data-name="Path 6583" d="M189.767,70.126a2.354,2.354,0,1,0,2.354-2.352,2.354,2.354,0,0,0-2.354,2.352" transform="translate(21.952 -36.148)" fill="#da9eef"/>
      <path id="Path_6584" data-name="Path 6584" d="M189.767,83.682a2.354,2.354,0,1,0,2.354-2.354,2.353,2.353,0,0,0-2.354,2.354" transform="translate(21.952 -26.768)" fill="#da9eef"/>
      <path id="Path_6585" data-name="Path 6585" d="M189.767,97.237a2.354,2.354,0,1,0,2.354-2.354,2.354,2.354,0,0,0-2.354,2.354" transform="translate(21.952 -17.387)" fill="#da9eef"/>
      <path id="Path_6586" data-name="Path 6586" d="M189.767,110.792a2.354,2.354,0,1,0,2.354-2.354,2.354,2.354,0,0,0-2.354,2.354" transform="translate(21.952 -8.007)" fill="#da9eef"/>
      <path id="Path_6587" data-name="Path 6587" d="M189.767,124.346a2.354,2.354,0,1,0,2.354-2.354,2.354,2.354,0,0,0-2.354,2.354" transform="translate(21.952 1.373)" fill="#da9eef"/>
      <path id="Path_6588" data-name="Path 6588" d="M189.767,137.9a2.354,2.354,0,1,0,2.354-2.354,2.354,2.354,0,0,0-2.354,2.354" transform="translate(21.952 10.754)" fill="#da9eef"/>
      <path id="Path_6589" data-name="Path 6589" d="M189.767,151.456a2.354,2.354,0,1,0,2.354-2.354,2.354,2.354,0,0,0-2.354,2.354" transform="translate(21.952 20.135)" fill="#da9eef"/>
      <path id="Path_6590" data-name="Path 6590" d="M189.767,165.011a2.354,2.354,0,1,0,2.354-2.354,2.353,2.353,0,0,0-2.354,2.354" transform="translate(21.952 29.515)" fill="#da9eef"/>
      <path id="Path_6591" data-name="Path 6591" d="M189.767,178.566a2.354,2.354,0,1,0,2.354-2.354,2.354,2.354,0,0,0-2.354,2.354" transform="translate(21.952 38.896)" fill="#da9eef"/>
      <path id="Path_6592" data-name="Path 6592" d="M189.767,192.12a2.354,2.354,0,1,0,2.354-2.354,2.354,2.354,0,0,0-2.354,2.354" transform="translate(21.952 48.276)" fill="#da9eef"/>
      <path id="Path_6593" data-name="Path 6593" d="M189.767,205.675a2.354,2.354,0,1,0,2.354-2.354,2.354,2.354,0,0,0-2.354,2.354" transform="translate(21.952 57.657)" fill="#da9eef"/>
      <path id="Path_6594" data-name="Path 6594" d="M189.767,219.23a2.354,2.354,0,1,0,2.354-2.354,2.354,2.354,0,0,0-2.354,2.354" transform="translate(21.952 67.037)" fill="#da9eef"/>
      <path id="Path_6595" data-name="Path 6595" d="M176.212,56.573a2.354,2.354,0,1,0,2.354-2.354,2.354,2.354,0,0,0-2.354,2.354" transform="translate(12.571 -45.529)" fill="#da9eef"/>
      <path id="Path_6596" data-name="Path 6596" d="M176.212,70.126a2.354,2.354,0,1,0,2.354-2.352,2.354,2.354,0,0,0-2.354,2.352" transform="translate(12.571 -36.148)" fill="#da9eef"/>
      <path id="Path_6597" data-name="Path 6597" d="M176.212,83.682a2.354,2.354,0,1,0,2.354-2.354,2.353,2.353,0,0,0-2.354,2.354" transform="translate(12.571 -26.768)" fill="#da9eef"/>
      <path id="Path_6598" data-name="Path 6598" d="M176.212,97.237a2.354,2.354,0,1,0,2.354-2.354,2.354,2.354,0,0,0-2.354,2.354" transform="translate(12.571 -17.387)" fill="#da9eef"/>
      <path id="Path_6599" data-name="Path 6599" d="M176.212,110.792a2.354,2.354,0,1,0,2.354-2.354,2.354,2.354,0,0,0-2.354,2.354" transform="translate(12.571 -8.007)" fill="#da9eef"/>
      <path id="Path_6600" data-name="Path 6600" d="M176.212,124.346a2.354,2.354,0,1,0,2.354-2.354,2.354,2.354,0,0,0-2.354,2.354" transform="translate(12.571 1.373)" fill="#da9eef"/>
      <path id="Path_6601" data-name="Path 6601" d="M176.212,137.9a2.354,2.354,0,1,0,2.354-2.354,2.354,2.354,0,0,0-2.354,2.354" transform="translate(12.571 10.754)" fill="#da9eef"/>
      <path id="Path_6602" data-name="Path 6602" d="M176.212,151.456a2.354,2.354,0,1,0,2.354-2.354,2.354,2.354,0,0,0-2.354,2.354" transform="translate(12.571 20.135)" fill="#da9eef"/>
      <path id="Path_6603" data-name="Path 6603" d="M176.212,165.011a2.354,2.354,0,1,0,2.354-2.354,2.353,2.353,0,0,0-2.354,2.354" transform="translate(12.571 29.515)" fill="#da9eef"/>
      <path id="Path_6604" data-name="Path 6604" d="M176.212,178.566a2.354,2.354,0,1,0,2.354-2.354,2.354,2.354,0,0,0-2.354,2.354" transform="translate(12.571 38.896)" fill="#da9eef"/>
      <path id="Path_6605" data-name="Path 6605" d="M176.212,192.12a2.354,2.354,0,1,0,2.354-2.354,2.354,2.354,0,0,0-2.354,2.354" transform="translate(12.571 48.276)" fill="#da9eef"/>
      <path id="Path_6606" data-name="Path 6606" d="M176.212,205.675a2.354,2.354,0,1,0,2.354-2.354,2.354,2.354,0,0,0-2.354,2.354" transform="translate(12.571 57.657)" fill="#da9eef"/>
      <path id="Path_6607" data-name="Path 6607" d="M176.212,219.23a2.354,2.354,0,1,0,2.354-2.354,2.354,2.354,0,0,0-2.354,2.354" transform="translate(12.571 67.037)" fill="#da9eef"/>
      <path id="Path_6608" data-name="Path 6608" d="M162.657,56.573a2.354,2.354,0,1,0,2.354-2.354,2.354,2.354,0,0,0-2.354,2.354" transform="translate(3.191 -45.529)" fill="#da9eef"/>
      <path id="Path_6609" data-name="Path 6609" d="M162.657,70.126a2.354,2.354,0,1,0,2.354-2.352,2.354,2.354,0,0,0-2.354,2.352" transform="translate(3.191 -36.148)" fill="#da9eef"/>
      <path id="Path_6610" data-name="Path 6610" d="M162.657,83.682a2.354,2.354,0,1,0,2.354-2.354,2.353,2.353,0,0,0-2.354,2.354" transform="translate(3.191 -26.768)" fill="#da9eef"/>
      <path id="Path_6611" data-name="Path 6611" d="M162.657,97.237a2.354,2.354,0,1,0,2.354-2.354,2.354,2.354,0,0,0-2.354,2.354" transform="translate(3.191 -17.387)" fill="#da9eef"/>
      <path id="Path_6612" data-name="Path 6612" d="M162.657,110.792a2.354,2.354,0,1,0,2.354-2.354,2.354,2.354,0,0,0-2.354,2.354" transform="translate(3.191 -8.007)" fill="#da9eef"/>
      <path id="Path_6613" data-name="Path 6613" d="M162.657,124.346a2.354,2.354,0,1,0,2.354-2.354,2.354,2.354,0,0,0-2.354,2.354" transform="translate(3.191 1.373)" fill="#da9eef"/>
      <path id="Path_6614" data-name="Path 6614" d="M162.657,137.9a2.354,2.354,0,1,0,2.354-2.354,2.354,2.354,0,0,0-2.354,2.354" transform="translate(3.191 10.754)" fill="#da9eef"/>
      <path id="Path_6615" data-name="Path 6615" d="M162.657,151.456a2.354,2.354,0,1,0,2.354-2.354,2.354,2.354,0,0,0-2.354,2.354" transform="translate(3.191 20.135)" fill="#da9eef"/>
      <path id="Path_6616" data-name="Path 6616" d="M162.657,165.011a2.354,2.354,0,1,0,2.354-2.354,2.353,2.353,0,0,0-2.354,2.354" transform="translate(3.191 29.515)" fill="#da9eef"/>
      <path id="Path_6617" data-name="Path 6617" d="M162.657,178.566a2.354,2.354,0,1,0,2.354-2.354,2.354,2.354,0,0,0-2.354,2.354" transform="translate(3.191 38.896)" fill="#da9eef"/>
      <path id="Path_6618" data-name="Path 6618" d="M162.657,192.12a2.354,2.354,0,1,0,2.354-2.354,2.354,2.354,0,0,0-2.354,2.354" transform="translate(3.191 48.276)" fill="#da9eef"/>
      <path id="Path_6619" data-name="Path 6619" d="M162.657,205.675a2.354,2.354,0,1,0,2.354-2.354,2.354,2.354,0,0,0-2.354,2.354" transform="translate(3.191 57.657)" fill="#da9eef"/>
      <path id="Path_6620" data-name="Path 6620" d="M162.657,219.23a2.354,2.354,0,1,0,2.354-2.354,2.354,2.354,0,0,0-2.354,2.354" transform="translate(3.191 67.037)" fill="#da9eef"/>
      <path id="Path_6621" data-name="Path 6621" d="M149.1,56.573a2.354,2.354,0,1,0,2.354-2.354,2.354,2.354,0,0,0-2.354,2.354" transform="translate(-6.19 -45.529)" fill="#da9eef"/>
      <path id="Path_6622" data-name="Path 6622" d="M149.1,70.126a2.354,2.354,0,1,0,2.354-2.352,2.354,2.354,0,0,0-2.354,2.352" transform="translate(-6.19 -36.148)" fill="#da9eef"/>
      <path id="Path_6623" data-name="Path 6623" d="M149.1,83.682a2.354,2.354,0,1,0,2.354-2.354,2.353,2.353,0,0,0-2.354,2.354" transform="translate(-6.19 -26.768)" fill="#da9eef"/>
      <path id="Path_6624" data-name="Path 6624" d="M149.1,97.237a2.354,2.354,0,1,0,2.354-2.354,2.354,2.354,0,0,0-2.354,2.354" transform="translate(-6.19 -17.387)" fill="#da9eef"/>
      <path id="Path_6625" data-name="Path 6625" d="M149.1,110.792a2.354,2.354,0,1,0,2.354-2.354,2.354,2.354,0,0,0-2.354,2.354" transform="translate(-6.19 -8.007)" fill="#da9eef"/>
      <path id="Path_6626" data-name="Path 6626" d="M149.1,124.346a2.354,2.354,0,1,0,2.354-2.354,2.354,2.354,0,0,0-2.354,2.354" transform="translate(-6.19 1.373)" fill="#da9eef"/>
      <path id="Path_6627" data-name="Path 6627" d="M149.1,137.9a2.354,2.354,0,1,0,2.354-2.354A2.354,2.354,0,0,0,149.1,137.9" transform="translate(-6.19 10.754)" fill="#da9eef"/>
      <path id="Path_6628" data-name="Path 6628" d="M149.1,151.456a2.354,2.354,0,1,0,2.354-2.354,2.354,2.354,0,0,0-2.354,2.354" transform="translate(-6.19 20.135)" fill="#da9eef"/>
      <path id="Path_6629" data-name="Path 6629" d="M149.1,165.011a2.354,2.354,0,1,0,2.354-2.354,2.353,2.353,0,0,0-2.354,2.354" transform="translate(-6.19 29.515)" fill="#da9eef"/>
      <path id="Path_6630" data-name="Path 6630" d="M149.1,178.566a2.354,2.354,0,1,0,2.354-2.354,2.354,2.354,0,0,0-2.354,2.354" transform="translate(-6.19 38.896)" fill="#da9eef"/>
      <path id="Path_6631" data-name="Path 6631" d="M149.1,192.12a2.354,2.354,0,1,0,2.354-2.354,2.354,2.354,0,0,0-2.354,2.354" transform="translate(-6.19 48.276)" fill="#da9eef"/>
      <path id="Path_6632" data-name="Path 6632" d="M149.1,205.675a2.354,2.354,0,1,0,2.354-2.354,2.354,2.354,0,0,0-2.354,2.354" transform="translate(-6.19 57.657)" fill="#da9eef"/>
      <path id="Path_6633" data-name="Path 6633" d="M149.1,219.23a2.354,2.354,0,1,0,2.354-2.354,2.354,2.354,0,0,0-2.354,2.354" transform="translate(-6.19 67.037)" fill="#da9eef"/>
      <path id="Path_6634" data-name="Path 6634" d="M135.548,56.573a2.353,2.353,0,1,0,2.354-2.354,2.353,2.353,0,0,0-2.354,2.354" transform="translate(-15.57 -45.529)" fill="#da9eef"/>
      <path id="Path_6635" data-name="Path 6635" d="M135.548,70.126a2.353,2.353,0,1,0,2.354-2.352,2.353,2.353,0,0,0-2.354,2.352" transform="translate(-15.57 -36.148)" fill="#da9eef"/>
      <path id="Path_6636" data-name="Path 6636" d="M135.548,83.682a2.353,2.353,0,1,0,2.354-2.354,2.352,2.352,0,0,0-2.354,2.354" transform="translate(-15.57 -26.768)" fill="#da9eef"/>
      <path id="Path_6637" data-name="Path 6637" d="M135.548,97.237a2.353,2.353,0,1,0,2.354-2.354,2.353,2.353,0,0,0-2.354,2.354" transform="translate(-15.57 -17.387)" fill="#da9eef"/>
      <path id="Path_6638" data-name="Path 6638" d="M135.548,110.792a2.353,2.353,0,1,0,2.354-2.354,2.353,2.353,0,0,0-2.354,2.354" transform="translate(-15.57 -8.007)" fill="#da9eef"/>
      <path id="Path_6639" data-name="Path 6639" d="M135.548,124.346a2.353,2.353,0,1,0,2.354-2.354,2.353,2.353,0,0,0-2.354,2.354" transform="translate(-15.57 1.373)" fill="#da9eef"/>
      <path id="Path_6640" data-name="Path 6640" d="M135.548,137.9a2.353,2.353,0,1,0,2.354-2.354,2.353,2.353,0,0,0-2.354,2.354" transform="translate(-15.57 10.754)" fill="#da9eef"/>
      <path id="Path_6641" data-name="Path 6641" d="M135.548,151.456A2.353,2.353,0,1,0,137.9,149.1a2.353,2.353,0,0,0-2.354,2.354" transform="translate(-15.57 20.135)" fill="#da9eef"/>
      <path id="Path_6642" data-name="Path 6642" d="M135.548,165.011a2.353,2.353,0,1,0,2.354-2.354,2.352,2.352,0,0,0-2.354,2.354" transform="translate(-15.57 29.515)" fill="#da9eef"/>
      <path id="Path_6643" data-name="Path 6643" d="M135.548,178.566a2.353,2.353,0,1,0,2.354-2.354,2.353,2.353,0,0,0-2.354,2.354" transform="translate(-15.57 38.896)" fill="#da9eef"/>
      <path id="Path_6644" data-name="Path 6644" d="M135.548,192.12a2.353,2.353,0,1,0,2.354-2.354,2.353,2.353,0,0,0-2.354,2.354" transform="translate(-15.57 48.276)" fill="#da9eef"/>
      <path id="Path_6645" data-name="Path 6645" d="M135.548,205.675a2.353,2.353,0,1,0,2.354-2.354,2.353,2.353,0,0,0-2.354,2.354" transform="translate(-15.57 57.657)" fill="#da9eef"/>
      <path id="Path_6646" data-name="Path 6646" d="M135.548,219.23a2.353,2.353,0,1,0,2.354-2.354,2.353,2.353,0,0,0-2.354,2.354" transform="translate(-15.57 67.037)" fill="#da9eef"/>
      <path id="Path_6647" data-name="Path 6647" d="M121.993,56.573a2.353,2.353,0,1,0,2.352-2.354,2.353,2.353,0,0,0-2.352,2.354" transform="translate(-24.951 -45.529)" fill="#da9eef"/>
      <path id="Path_6648" data-name="Path 6648" d="M121.993,70.126a2.353,2.353,0,1,0,2.352-2.352,2.353,2.353,0,0,0-2.352,2.352" transform="translate(-24.951 -36.148)" fill="#da9eef"/>
      <path id="Path_6649" data-name="Path 6649" d="M121.993,83.682a2.353,2.353,0,1,0,2.352-2.354,2.351,2.351,0,0,0-2.352,2.354" transform="translate(-24.951 -26.768)" fill="#da9eef"/>
      <path id="Path_6650" data-name="Path 6650" d="M121.993,97.237a2.353,2.353,0,1,0,2.352-2.354,2.353,2.353,0,0,0-2.352,2.354" transform="translate(-24.951 -17.387)" fill="#da9eef"/>
      <path id="Path_6651" data-name="Path 6651" d="M121.993,110.792a2.353,2.353,0,1,0,2.352-2.354,2.353,2.353,0,0,0-2.352,2.354" transform="translate(-24.951 -8.007)" fill="#da9eef"/>
      <path id="Path_6652" data-name="Path 6652" d="M121.993,124.346a2.353,2.353,0,1,0,2.352-2.354,2.353,2.353,0,0,0-2.352,2.354" transform="translate(-24.951 1.373)" fill="#da9eef"/>
      <path id="Path_6653" data-name="Path 6653" d="M121.993,137.9a2.353,2.353,0,1,0,2.352-2.354,2.353,2.353,0,0,0-2.352,2.354" transform="translate(-24.951 10.754)" fill="#da9eef"/>
      <path id="Path_6654" data-name="Path 6654" d="M121.993,151.456a2.353,2.353,0,1,0,2.352-2.354,2.353,2.353,0,0,0-2.352,2.354" transform="translate(-24.951 20.135)" fill="#da9eef"/>
      <path id="Path_6655" data-name="Path 6655" d="M121.993,165.011a2.353,2.353,0,1,0,2.352-2.354,2.351,2.351,0,0,0-2.352,2.354" transform="translate(-24.951 29.515)" fill="#da9eef"/>
      <path id="Path_6656" data-name="Path 6656" d="M121.993,178.566a2.353,2.353,0,1,0,2.352-2.354,2.353,2.353,0,0,0-2.352,2.354" transform="translate(-24.951 38.896)" fill="#da9eef"/>
      <path id="Path_6657" data-name="Path 6657" d="M121.993,192.12a2.353,2.353,0,1,0,2.352-2.354,2.353,2.353,0,0,0-2.352,2.354" transform="translate(-24.951 48.276)" fill="#da9eef"/>
      <path id="Path_6658" data-name="Path 6658" d="M121.993,205.675a2.353,2.353,0,1,0,2.352-2.354,2.353,2.353,0,0,0-2.352,2.354" transform="translate(-24.951 57.657)" fill="#da9eef"/>
      <path id="Path_6659" data-name="Path 6659" d="M121.993,219.23a2.353,2.353,0,1,0,2.352-2.354,2.353,2.353,0,0,0-2.352,2.354" transform="translate(-24.951 67.037)" fill="#da9eef"/>
      <path id="Path_6660" data-name="Path 6660" d="M108.438,56.573a2.354,2.354,0,1,0,2.354-2.354,2.354,2.354,0,0,0-2.354,2.354" transform="translate(-34.331 -45.529)" fill="#da9eef"/>
      <path id="Path_6661" data-name="Path 6661" d="M108.438,70.126a2.354,2.354,0,1,0,2.354-2.352,2.354,2.354,0,0,0-2.354,2.352" transform="translate(-34.331 -36.148)" fill="#da9eef"/>
      <path id="Path_6662" data-name="Path 6662" d="M108.438,83.682a2.354,2.354,0,1,0,2.354-2.354,2.353,2.353,0,0,0-2.354,2.354" transform="translate(-34.331 -26.768)" fill="#da9eef"/>
      <path id="Path_6663" data-name="Path 6663" d="M108.438,97.237a2.354,2.354,0,1,0,2.354-2.354,2.354,2.354,0,0,0-2.354,2.354" transform="translate(-34.331 -17.387)" fill="#da9eef"/>
      <path id="Path_6664" data-name="Path 6664" d="M108.438,110.792a2.354,2.354,0,1,0,2.354-2.354,2.354,2.354,0,0,0-2.354,2.354" transform="translate(-34.331 -8.007)" fill="#da9eef"/>
      <path id="Path_6665" data-name="Path 6665" d="M108.438,124.346a2.354,2.354,0,1,0,2.354-2.354,2.354,2.354,0,0,0-2.354,2.354" transform="translate(-34.331 1.373)" fill="#da9eef"/>
      <path id="Path_6666" data-name="Path 6666" d="M108.438,137.9a2.354,2.354,0,1,0,2.354-2.354,2.354,2.354,0,0,0-2.354,2.354" transform="translate(-34.331 10.754)" fill="#da9eef"/>
      <path id="Path_6667" data-name="Path 6667" d="M108.438,151.456a2.354,2.354,0,1,0,2.354-2.354,2.354,2.354,0,0,0-2.354,2.354" transform="translate(-34.331 20.135)" fill="#da9eef"/>
      <path id="Path_6668" data-name="Path 6668" d="M108.438,165.011a2.354,2.354,0,1,0,2.354-2.354,2.353,2.353,0,0,0-2.354,2.354" transform="translate(-34.331 29.515)" fill="#da9eef"/>
      <path id="Path_6669" data-name="Path 6669" d="M108.438,178.566a2.354,2.354,0,1,0,2.354-2.354,2.354,2.354,0,0,0-2.354,2.354" transform="translate(-34.331 38.896)" fill="#da9eef"/>
      <path id="Path_6670" data-name="Path 6670" d="M108.438,192.12a2.354,2.354,0,1,0,2.354-2.354,2.354,2.354,0,0,0-2.354,2.354" transform="translate(-34.331 48.276)" fill="#da9eef"/>
      <path id="Path_6671" data-name="Path 6671" d="M108.438,205.675a2.354,2.354,0,1,0,2.354-2.354,2.354,2.354,0,0,0-2.354,2.354" transform="translate(-34.331 57.657)" fill="#da9eef"/>
      <path id="Path_6672" data-name="Path 6672" d="M108.438,219.23a2.354,2.354,0,1,0,2.354-2.354,2.354,2.354,0,0,0-2.354,2.354" transform="translate(-34.331 67.037)" fill="#da9eef"/>
      <path id="Path_6673" data-name="Path 6673" d="M94.883,56.573a2.354,2.354,0,1,0,2.354-2.354,2.354,2.354,0,0,0-2.354,2.354" transform="translate(-43.712 -45.529)" fill="#da9eef"/>
      <path id="Path_6674" data-name="Path 6674" d="M94.883,70.126a2.354,2.354,0,1,0,2.354-2.352,2.354,2.354,0,0,0-2.354,2.352" transform="translate(-43.712 -36.148)" fill="#da9eef"/>
      <path id="Path_6675" data-name="Path 6675" d="M94.883,83.682a2.354,2.354,0,1,0,2.354-2.354,2.353,2.353,0,0,0-2.354,2.354" transform="translate(-43.712 -26.768)" fill="#da9eef"/>
      <path id="Path_6676" data-name="Path 6676" d="M94.883,97.237a2.354,2.354,0,1,0,2.354-2.354,2.354,2.354,0,0,0-2.354,2.354" transform="translate(-43.712 -17.387)" fill="#da9eef"/>
      <path id="Path_6677" data-name="Path 6677" d="M94.883,110.792a2.354,2.354,0,1,0,2.354-2.354,2.354,2.354,0,0,0-2.354,2.354" transform="translate(-43.712 -8.007)" fill="#da9eef"/>
      <path id="Path_6678" data-name="Path 6678" d="M94.883,124.346a2.354,2.354,0,1,0,2.354-2.354,2.354,2.354,0,0,0-2.354,2.354" transform="translate(-43.712 1.373)" fill="#da9eef"/>
      <path id="Path_6679" data-name="Path 6679" d="M94.883,137.9a2.354,2.354,0,1,0,2.354-2.354,2.354,2.354,0,0,0-2.354,2.354" transform="translate(-43.712 10.754)" fill="#da9eef"/>
      <path id="Path_6680" data-name="Path 6680" d="M94.883,151.456a2.354,2.354,0,1,0,2.354-2.354,2.354,2.354,0,0,0-2.354,2.354" transform="translate(-43.712 20.135)" fill="#da9eef"/>
      <path id="Path_6681" data-name="Path 6681" d="M94.883,165.011a2.354,2.354,0,1,0,2.354-2.354,2.353,2.353,0,0,0-2.354,2.354" transform="translate(-43.712 29.515)" fill="#da9eef"/>
      <path id="Path_6682" data-name="Path 6682" d="M94.883,178.566a2.354,2.354,0,1,0,2.354-2.354,2.354,2.354,0,0,0-2.354,2.354" transform="translate(-43.712 38.896)" fill="#da9eef"/>
      <path id="Path_6683" data-name="Path 6683" d="M94.883,192.12a2.354,2.354,0,1,0,2.354-2.354,2.354,2.354,0,0,0-2.354,2.354" transform="translate(-43.712 48.276)" fill="#da9eef"/>
      <path id="Path_6684" data-name="Path 6684" d="M94.883,205.675a2.354,2.354,0,1,0,2.354-2.354,2.354,2.354,0,0,0-2.354,2.354" transform="translate(-43.712 57.657)" fill="#da9eef"/>
      <path id="Path_6685" data-name="Path 6685" d="M94.883,219.23a2.354,2.354,0,1,0,2.354-2.354,2.354,2.354,0,0,0-2.354,2.354" transform="translate(-43.712 67.037)" fill="#da9eef"/>
      <path id="Path_6686" data-name="Path 6686" d="M81.329,56.573a2.354,2.354,0,1,0,2.354-2.354,2.354,2.354,0,0,0-2.354,2.354" transform="translate(-53.092 -45.529)" fill="#da9eef"/>
      <path id="Path_6687" data-name="Path 6687" d="M81.329,70.126a2.354,2.354,0,1,0,2.354-2.352,2.354,2.354,0,0,0-2.354,2.352" transform="translate(-53.092 -36.148)" fill="#da9eef"/>
      <path id="Path_6688" data-name="Path 6688" d="M81.329,83.682a2.354,2.354,0,1,0,2.354-2.354,2.353,2.353,0,0,0-2.354,2.354" transform="translate(-53.092 -26.768)" fill="#da9eef"/>
      <path id="Path_6689" data-name="Path 6689" d="M81.329,97.237a2.354,2.354,0,1,0,2.354-2.354,2.354,2.354,0,0,0-2.354,2.354" transform="translate(-53.092 -17.387)" fill="#da9eef"/>
      <path id="Path_6690" data-name="Path 6690" d="M81.329,110.792a2.354,2.354,0,1,0,2.354-2.354,2.354,2.354,0,0,0-2.354,2.354" transform="translate(-53.092 -8.007)" fill="#da9eef"/>
      <path id="Path_6691" data-name="Path 6691" d="M81.329,124.346a2.354,2.354,0,1,0,2.354-2.354,2.354,2.354,0,0,0-2.354,2.354" transform="translate(-53.092 1.373)" fill="#da9eef"/>
      <path id="Path_6692" data-name="Path 6692" d="M81.329,137.9a2.354,2.354,0,1,0,2.354-2.354,2.354,2.354,0,0,0-2.354,2.354" transform="translate(-53.092 10.754)" fill="#da9eef"/>
      <path id="Path_6693" data-name="Path 6693" d="M81.329,151.456a2.354,2.354,0,1,0,2.354-2.354,2.354,2.354,0,0,0-2.354,2.354" transform="translate(-53.092 20.135)" fill="#da9eef"/>
      <path id="Path_6694" data-name="Path 6694" d="M81.329,165.011a2.354,2.354,0,1,0,2.354-2.354,2.353,2.353,0,0,0-2.354,2.354" transform="translate(-53.092 29.515)" fill="#da9eef"/>
      <path id="Path_6695" data-name="Path 6695" d="M81.329,178.566a2.354,2.354,0,1,0,2.354-2.354,2.354,2.354,0,0,0-2.354,2.354" transform="translate(-53.092 38.896)" fill="#da9eef"/>
      <path id="Path_6696" data-name="Path 6696" d="M81.329,192.12a2.354,2.354,0,1,0,2.354-2.354,2.354,2.354,0,0,0-2.354,2.354" transform="translate(-53.092 48.276)" fill="#da9eef"/>
      <path id="Path_6697" data-name="Path 6697" d="M81.329,205.675a2.354,2.354,0,1,0,2.354-2.354,2.354,2.354,0,0,0-2.354,2.354" transform="translate(-53.092 57.657)" fill="#da9eef"/>
      <path id="Path_6698" data-name="Path 6698" d="M81.329,219.23a2.354,2.354,0,1,0,2.354-2.354,2.354,2.354,0,0,0-2.354,2.354" transform="translate(-53.092 67.037)" fill="#da9eef"/>
      <path id="Path_6699" data-name="Path 6699" d="M67.774,56.573a2.354,2.354,0,1,0,2.354-2.354,2.353,2.353,0,0,0-2.354,2.354" transform="translate(-62.473 -45.529)" fill="#da9eef"/>
      <path id="Path_6700" data-name="Path 6700" d="M67.774,70.126a2.354,2.354,0,1,0,2.354-2.352,2.353,2.353,0,0,0-2.354,2.352" transform="translate(-62.473 -36.148)" fill="#da9eef"/>
      <path id="Path_6701" data-name="Path 6701" d="M67.774,83.682a2.354,2.354,0,1,0,2.354-2.354,2.352,2.352,0,0,0-2.354,2.354" transform="translate(-62.473 -26.768)" fill="#da9eef"/>
      <path id="Path_6702" data-name="Path 6702" d="M67.774,97.237a2.354,2.354,0,1,0,2.354-2.354,2.353,2.353,0,0,0-2.354,2.354" transform="translate(-62.473 -17.387)" fill="#da9eef"/>
      <path id="Path_6703" data-name="Path 6703" d="M67.774,110.792a2.354,2.354,0,1,0,2.354-2.354,2.353,2.353,0,0,0-2.354,2.354" transform="translate(-62.473 -8.007)" fill="#da9eef"/>
      <path id="Path_6704" data-name="Path 6704" d="M67.774,124.346a2.354,2.354,0,1,0,2.354-2.354,2.353,2.353,0,0,0-2.354,2.354" transform="translate(-62.473 1.373)" fill="#da9eef"/>
      <path id="Path_6705" data-name="Path 6705" d="M67.774,137.9a2.354,2.354,0,1,0,2.354-2.354,2.353,2.353,0,0,0-2.354,2.354" transform="translate(-62.473 10.754)" fill="#da9eef"/>
      <path id="Path_6706" data-name="Path 6706" d="M67.774,151.456a2.354,2.354,0,1,0,2.354-2.354,2.353,2.353,0,0,0-2.354,2.354" transform="translate(-62.473 20.135)" fill="#da9eef"/>
      <path id="Path_6707" data-name="Path 6707" d="M67.774,165.011a2.354,2.354,0,1,0,2.354-2.354,2.352,2.352,0,0,0-2.354,2.354" transform="translate(-62.473 29.515)" fill="#da9eef"/>
      <path id="Path_6708" data-name="Path 6708" d="M67.774,178.566a2.354,2.354,0,1,0,2.354-2.354,2.353,2.353,0,0,0-2.354,2.354" transform="translate(-62.473 38.896)" fill="#da9eef"/>
      <path id="Path_6709" data-name="Path 6709" d="M67.774,192.12a2.354,2.354,0,1,0,2.354-2.354,2.353,2.353,0,0,0-2.354,2.354" transform="translate(-62.473 48.276)" fill="#da9eef"/>
      <path id="Path_6710" data-name="Path 6710" d="M67.774,205.675a2.354,2.354,0,1,0,2.354-2.354,2.353,2.353,0,0,0-2.354,2.354" transform="translate(-62.473 57.657)" fill="#da9eef"/>
      <path id="Path_6711" data-name="Path 6711" d="M67.774,219.23a2.354,2.354,0,1,0,2.354-2.354,2.353,2.353,0,0,0-2.354,2.354" transform="translate(-62.473 67.037)" fill="#da9eef"/>
    </g>
  </g>
</svg>
