<svg xmlns="http://www.w3.org/2000/svg" xmlns:xlink="http://www.w3.org/1999/xlink" width="396.776" height="406.661" viewBox="0 0 396.776 406.661">
  <defs>
    <clipPath id="clip-path">
      <path id="Path_6568" data-name="Path 6568" d="M6.782,167.273A160.49,160.49,0,1,0,167.272,6.783,160.492,160.492,0,0,0,6.782,167.273" transform="translate(-6.782 -6.783)" fill="#a8bfff"/>
    </clipPath>
  </defs>
  <g id="Group_450" data-name="Group 450" transform="translate(148.776 -4334.691)">
    <circle id="Ellipse_12" data-name="Ellipse 12" cx="142.625" cy="142.625" r="142.625" transform="translate(-37.25 4334.691)" fill="#e2e0fa" opacity="0.188"/>
    <g id="Group_398" data-name="Group 398" transform="translate(-155.558 4413.588)" opacity="0.8">
      <g id="Group_385" data-name="Group 385" transform="translate(6.782 6.783)" clip-path="url(#clip-path)">
        <path id="Path_6491" data-name="Path 6491" d="M107.955,27.618a3.629,3.629,0,1,0,3.63-3.627,3.63,3.63,0,0,0-3.63,3.627" transform="translate(190.398 26.754)" fill="#a8bfff"/>
        <path id="Path_6492" data-name="Path 6492" d="M107.955,39.615a3.629,3.629,0,1,0,3.63-3.63,3.627,3.627,0,0,0-3.63,3.63" transform="translate(190.398 50.13)" fill="#a8bfff"/>
        <path id="Path_6493" data-name="Path 6493" d="M107.955,51.61a3.629,3.629,0,1,0,3.63-3.63,3.63,3.63,0,0,0-3.63,3.63" transform="translate(190.398 73.508)" fill="#a8bfff"/>
        <path id="Path_6494" data-name="Path 6494" d="M107.955,63.605a3.629,3.629,0,1,0,3.63-3.63,3.63,3.63,0,0,0-3.63,3.63" transform="translate(190.398 96.885)" fill="#a8bfff"/>
        <path id="Path_6495" data-name="Path 6495" d="M107.955,75.6a3.629,3.629,0,1,0,3.63-3.627,3.63,3.63,0,0,0-3.63,3.627" transform="translate(190.398 120.265)" fill="#a8bfff"/>
        <path id="Path_6496" data-name="Path 6496" d="M107.955,87.6a3.629,3.629,0,1,0,3.63-3.63,3.627,3.627,0,0,0-3.63,3.63" transform="translate(190.398 143.64)" fill="#a8bfff"/>
        <path id="Path_6497" data-name="Path 6497" d="M107.955,99.59a3.629,3.629,0,1,0,3.63-3.63,3.63,3.63,0,0,0-3.63,3.63" transform="translate(190.398 167.018)" fill="#a8bfff"/>
        <path id="Path_6498" data-name="Path 6498" d="M95.96,15.625a3.629,3.629,0,1,0,3.627-3.63,3.629,3.629,0,0,0-3.627,3.63" transform="translate(167.021 3.375)" fill="#a8bfff"/>
        <path id="Path_6499" data-name="Path 6499" d="M95.96,27.618a3.629,3.629,0,1,0,3.627-3.627,3.629,3.629,0,0,0-3.627,3.627" transform="translate(167.021 26.754)" fill="#a8bfff"/>
        <path id="Path_6500" data-name="Path 6500" d="M95.96,39.615a3.629,3.629,0,1,0,3.627-3.63,3.626,3.626,0,0,0-3.627,3.63" transform="translate(167.021 50.13)" fill="#a8bfff"/>
        <path id="Path_6501" data-name="Path 6501" d="M95.96,51.61a3.629,3.629,0,1,0,3.627-3.63,3.629,3.629,0,0,0-3.627,3.63" transform="translate(167.021 73.508)" fill="#a8bfff"/>
        <path id="Path_6502" data-name="Path 6502" d="M95.96,63.605a3.629,3.629,0,1,0,3.627-3.63,3.629,3.629,0,0,0-3.627,3.63" transform="translate(167.021 96.885)" fill="#a8bfff"/>
        <path id="Path_6503" data-name="Path 6503" d="M95.96,75.6a3.629,3.629,0,1,0,3.627-3.627A3.629,3.629,0,0,0,95.96,75.6" transform="translate(167.021 120.265)" fill="#a8bfff"/>
        <path id="Path_6504" data-name="Path 6504" d="M95.96,87.6a3.629,3.629,0,1,0,3.627-3.63A3.627,3.627,0,0,0,95.96,87.6" transform="translate(167.021 143.64)" fill="#a8bfff"/>
        <path id="Path_6505" data-name="Path 6505" d="M95.96,99.59a3.629,3.629,0,1,0,3.627-3.63,3.629,3.629,0,0,0-3.627,3.63" transform="translate(167.021 167.018)" fill="#a8bfff"/>
        <path id="Path_6506" data-name="Path 6506" d="M95.96,111.582a3.629,3.629,0,1,0,3.627-3.627,3.629,3.629,0,0,0-3.627,3.627" transform="translate(167.021 190.396)" fill="#a8bfff"/>
        <path id="Path_6507" data-name="Path 6507" d="M83.965,15.625a3.63,3.63,0,1,0,3.63-3.63,3.63,3.63,0,0,0-3.63,3.63" transform="translate(143.643 3.375)" fill="#a8bfff"/>
        <path id="Path_6508" data-name="Path 6508" d="M83.965,27.618a3.63,3.63,0,1,0,3.63-3.627,3.63,3.63,0,0,0-3.63,3.627" transform="translate(143.643 26.754)" fill="#a8bfff"/>
        <path id="Path_6509" data-name="Path 6509" d="M83.965,39.615a3.63,3.63,0,1,0,3.63-3.63,3.627,3.627,0,0,0-3.63,3.63" transform="translate(143.643 50.13)" fill="#a8bfff"/>
        <path id="Path_6510" data-name="Path 6510" d="M83.965,51.61a3.63,3.63,0,1,0,3.63-3.63,3.63,3.63,0,0,0-3.63,3.63" transform="translate(143.643 73.508)" fill="#a8bfff"/>
        <path id="Path_6511" data-name="Path 6511" d="M83.965,63.605a3.63,3.63,0,1,0,3.63-3.63,3.63,3.63,0,0,0-3.63,3.63" transform="translate(143.643 96.885)" fill="#a8bfff"/>
        <path id="Path_6512" data-name="Path 6512" d="M83.965,75.6a3.63,3.63,0,1,0,3.63-3.627,3.63,3.63,0,0,0-3.63,3.627" transform="translate(143.643 120.265)" fill="#a8bfff"/>
        <path id="Path_6513" data-name="Path 6513" d="M83.965,87.6a3.63,3.63,0,1,0,3.63-3.63,3.627,3.627,0,0,0-3.63,3.63" transform="translate(143.643 143.64)" fill="#a8bfff"/>
        <path id="Path_6514" data-name="Path 6514" d="M83.965,99.59a3.63,3.63,0,1,0,3.63-3.63,3.63,3.63,0,0,0-3.63,3.63" transform="translate(143.643 167.018)" fill="#a8bfff"/>
        <path id="Path_6515" data-name="Path 6515" d="M83.965,111.582a3.63,3.63,0,1,0,3.63-3.627,3.63,3.63,0,0,0-3.63,3.627" transform="translate(143.643 190.396)" fill="#a8bfff"/>
        <path id="Path_6516" data-name="Path 6516" d="M71.97,15.625a3.63,3.63,0,1,0,3.63-3.63,3.63,3.63,0,0,0-3.63,3.63" transform="translate(120.266 3.375)" fill="#a8bfff"/>
        <path id="Path_6517" data-name="Path 6517" d="M71.97,27.618a3.63,3.63,0,1,0,3.63-3.627,3.63,3.63,0,0,0-3.63,3.627" transform="translate(120.266 26.754)" fill="#a8bfff"/>
        <path id="Path_6518" data-name="Path 6518" d="M71.97,39.615a3.63,3.63,0,1,0,3.63-3.63,3.627,3.627,0,0,0-3.63,3.63" transform="translate(120.266 50.13)" fill="#a8bfff"/>
        <path id="Path_6519" data-name="Path 6519" d="M71.97,51.61a3.63,3.63,0,1,0,3.63-3.63,3.63,3.63,0,0,0-3.63,3.63" transform="translate(120.266 73.508)" fill="#a8bfff"/>
        <path id="Path_6520" data-name="Path 6520" d="M71.97,63.605a3.63,3.63,0,1,0,3.63-3.63,3.63,3.63,0,0,0-3.63,3.63" transform="translate(120.266 96.885)" fill="#a8bfff"/>
        <path id="Path_6521" data-name="Path 6521" d="M71.97,75.6a3.63,3.63,0,1,0,3.63-3.627A3.63,3.63,0,0,0,71.97,75.6" transform="translate(120.266 120.265)" fill="#a8bfff"/>
        <path id="Path_6522" data-name="Path 6522" d="M71.97,87.6a3.63,3.63,0,1,0,3.63-3.63,3.627,3.627,0,0,0-3.63,3.63" transform="translate(120.266 143.64)" fill="#a8bfff"/>
        <path id="Path_6523" data-name="Path 6523" d="M71.97,99.59a3.63,3.63,0,1,0,3.63-3.63,3.63,3.63,0,0,0-3.63,3.63" transform="translate(120.266 167.018)" fill="#a8bfff"/>
        <path id="Path_6524" data-name="Path 6524" d="M71.97,111.582a3.63,3.63,0,1,0,3.63-3.627,3.63,3.63,0,0,0-3.63,3.627" transform="translate(120.266 190.396)" fill="#a8bfff"/>
        <path id="Path_6525" data-name="Path 6525" d="M59.975,15.625a3.629,3.629,0,1,0,3.63-3.63,3.63,3.63,0,0,0-3.63,3.63" transform="translate(96.888 3.375)" fill="#a8bfff"/>
        <path id="Path_6526" data-name="Path 6526" d="M59.975,27.618a3.629,3.629,0,1,0,3.63-3.627,3.63,3.63,0,0,0-3.63,3.627" transform="translate(96.888 26.754)" fill="#a8bfff"/>
        <path id="Path_6527" data-name="Path 6527" d="M59.975,39.615a3.629,3.629,0,1,0,3.63-3.63,3.627,3.627,0,0,0-3.63,3.63" transform="translate(96.888 50.13)" fill="#a8bfff"/>
        <path id="Path_6528" data-name="Path 6528" d="M59.975,51.61a3.629,3.629,0,1,0,3.63-3.63,3.63,3.63,0,0,0-3.63,3.63" transform="translate(96.888 73.508)" fill="#a8bfff"/>
        <path id="Path_6529" data-name="Path 6529" d="M59.975,63.605a3.629,3.629,0,1,0,3.63-3.63,3.63,3.63,0,0,0-3.63,3.63" transform="translate(96.888 96.885)" fill="#a8bfff"/>
        <path id="Path_6530" data-name="Path 6530" d="M59.975,75.6a3.629,3.629,0,1,0,3.63-3.627,3.63,3.63,0,0,0-3.63,3.627" transform="translate(96.888 120.265)" fill="#a8bfff"/>
        <path id="Path_6531" data-name="Path 6531" d="M59.975,87.6a3.629,3.629,0,1,0,3.63-3.63,3.627,3.627,0,0,0-3.63,3.63" transform="translate(96.888 143.64)" fill="#a8bfff"/>
        <path id="Path_6532" data-name="Path 6532" d="M59.975,99.59a3.629,3.629,0,1,0,3.63-3.63,3.63,3.63,0,0,0-3.63,3.63" transform="translate(96.888 167.018)" fill="#a8bfff"/>
        <path id="Path_6533" data-name="Path 6533" d="M59.975,111.582a3.629,3.629,0,1,0,3.63-3.627,3.63,3.63,0,0,0-3.63,3.627" transform="translate(96.888 190.396)" fill="#a8bfff"/>
        <path id="Path_6534" data-name="Path 6534" d="M47.98,15.625a3.629,3.629,0,1,0,3.627-3.63,3.629,3.629,0,0,0-3.627,3.63" transform="translate(73.511 3.375)" fill="#a8bfff"/>
        <path id="Path_6535" data-name="Path 6535" d="M47.98,27.618a3.629,3.629,0,1,0,3.627-3.627,3.629,3.629,0,0,0-3.627,3.627" transform="translate(73.511 26.754)" fill="#a8bfff"/>
        <path id="Path_6536" data-name="Path 6536" d="M47.98,39.615a3.629,3.629,0,1,0,3.627-3.63,3.626,3.626,0,0,0-3.627,3.63" transform="translate(73.511 50.13)" fill="#a8bfff"/>
        <path id="Path_6537" data-name="Path 6537" d="M47.98,51.61a3.629,3.629,0,1,0,3.627-3.63,3.629,3.629,0,0,0-3.627,3.63" transform="translate(73.511 73.508)" fill="#a8bfff"/>
        <path id="Path_6538" data-name="Path 6538" d="M47.98,63.605a3.629,3.629,0,1,0,3.627-3.63,3.629,3.629,0,0,0-3.627,3.63" transform="translate(73.511 96.885)" fill="#a8bfff"/>
        <path id="Path_6539" data-name="Path 6539" d="M47.98,75.6a3.629,3.629,0,1,0,3.627-3.627A3.629,3.629,0,0,0,47.98,75.6" transform="translate(73.511 120.265)" fill="#a8bfff"/>
        <path id="Path_6540" data-name="Path 6540" d="M47.98,87.6a3.629,3.629,0,1,0,3.627-3.63A3.626,3.626,0,0,0,47.98,87.6" transform="translate(73.511 143.64)" fill="#a8bfff"/>
        <path id="Path_6541" data-name="Path 6541" d="M47.98,99.59a3.629,3.629,0,1,0,3.627-3.63,3.629,3.629,0,0,0-3.627,3.63" transform="translate(73.511 167.018)" fill="#a8bfff"/>
        <path id="Path_6542" data-name="Path 6542" d="M47.98,111.582a3.629,3.629,0,1,0,3.627-3.627,3.629,3.629,0,0,0-3.627,3.627" transform="translate(73.511 190.396)" fill="#a8bfff"/>
        <path id="Path_6543" data-name="Path 6543" d="M35.985,15.625a3.63,3.63,0,1,0,3.63-3.63,3.63,3.63,0,0,0-3.63,3.63" transform="translate(50.133 3.375)" fill="#a8bfff"/>
        <path id="Path_6544" data-name="Path 6544" d="M35.985,27.618a3.63,3.63,0,1,0,3.63-3.627,3.63,3.63,0,0,0-3.63,3.627" transform="translate(50.133 26.754)" fill="#a8bfff"/>
        <path id="Path_6545" data-name="Path 6545" d="M35.985,39.615a3.63,3.63,0,1,0,3.63-3.63,3.627,3.627,0,0,0-3.63,3.63" transform="translate(50.133 50.13)" fill="#a8bfff"/>
        <path id="Path_6546" data-name="Path 6546" d="M35.985,51.61a3.63,3.63,0,1,0,3.63-3.63,3.63,3.63,0,0,0-3.63,3.63" transform="translate(50.133 73.508)" fill="#a8bfff"/>
        <path id="Path_6547" data-name="Path 6547" d="M35.985,63.605a3.63,3.63,0,1,0,3.63-3.63,3.63,3.63,0,0,0-3.63,3.63" transform="translate(50.133 96.885)" fill="#a8bfff"/>
        <path id="Path_6548" data-name="Path 6548" d="M35.985,75.6a3.63,3.63,0,1,0,3.63-3.627,3.63,3.63,0,0,0-3.63,3.627" transform="translate(50.133 120.265)" fill="#a8bfff"/>
        <path id="Path_6549" data-name="Path 6549" d="M35.985,87.6a3.63,3.63,0,1,0,3.63-3.63,3.627,3.627,0,0,0-3.63,3.63" transform="translate(50.133 143.64)" fill="#a8bfff"/>
        <path id="Path_6550" data-name="Path 6550" d="M35.985,99.59a3.63,3.63,0,1,0,3.63-3.63,3.63,3.63,0,0,0-3.63,3.63" transform="translate(50.133 167.018)" fill="#a8bfff"/>
        <path id="Path_6551" data-name="Path 6551" d="M35.985,111.582a3.63,3.63,0,1,0,3.63-3.627,3.63,3.63,0,0,0-3.63,3.627" transform="translate(50.133 190.396)" fill="#a8bfff"/>
        <path id="Path_6552" data-name="Path 6552" d="M23.99,15.625a3.629,3.629,0,1,0,3.63-3.63,3.63,3.63,0,0,0-3.63,3.63" transform="translate(26.755 3.375)" fill="#a8bfff"/>
        <path id="Path_6553" data-name="Path 6553" d="M23.99,27.618a3.629,3.629,0,1,0,3.63-3.627,3.63,3.63,0,0,0-3.63,3.627" transform="translate(26.755 26.754)" fill="#a8bfff"/>
        <path id="Path_6554" data-name="Path 6554" d="M23.99,39.615a3.629,3.629,0,1,0,3.63-3.63,3.627,3.627,0,0,0-3.63,3.63" transform="translate(26.755 50.13)" fill="#a8bfff"/>
        <path id="Path_6555" data-name="Path 6555" d="M23.99,51.61a3.629,3.629,0,1,0,3.63-3.63,3.63,3.63,0,0,0-3.63,3.63" transform="translate(26.755 73.508)" fill="#a8bfff"/>
        <path id="Path_6556" data-name="Path 6556" d="M23.99,63.605a3.629,3.629,0,1,0,3.63-3.63,3.63,3.63,0,0,0-3.63,3.63" transform="translate(26.755 96.885)" fill="#a8bfff"/>
        <path id="Path_6557" data-name="Path 6557" d="M23.99,75.6a3.629,3.629,0,1,0,3.63-3.627A3.63,3.63,0,0,0,23.99,75.6" transform="translate(26.755 120.265)" fill="#a8bfff"/>
        <path id="Path_6558" data-name="Path 6558" d="M23.99,87.6a3.629,3.629,0,1,0,3.63-3.63,3.627,3.627,0,0,0-3.63,3.63" transform="translate(26.755 143.64)" fill="#a8bfff"/>
        <path id="Path_6559" data-name="Path 6559" d="M23.99,99.59a3.629,3.629,0,1,0,3.63-3.63,3.63,3.63,0,0,0-3.63,3.63" transform="translate(26.755 167.018)" fill="#a8bfff"/>
        <path id="Path_6560" data-name="Path 6560" d="M23.99,111.582a3.629,3.629,0,1,0,3.63-3.627,3.63,3.63,0,0,0-3.63,3.627" transform="translate(26.755 190.396)" fill="#a8bfff"/>
        <path id="Path_6561" data-name="Path 6561" d="M11.995,27.618a3.629,3.629,0,1,0,3.627-3.627,3.629,3.629,0,0,0-3.627,3.627" transform="translate(3.378 26.754)" fill="#a8bfff"/>
        <path id="Path_6562" data-name="Path 6562" d="M11.995,39.615a3.629,3.629,0,1,0,3.627-3.63,3.626,3.626,0,0,0-3.627,3.63" transform="translate(3.378 50.13)" fill="#a8bfff"/>
        <path id="Path_6563" data-name="Path 6563" d="M11.995,51.61a3.629,3.629,0,1,0,3.627-3.63,3.629,3.629,0,0,0-3.627,3.63" transform="translate(3.378 73.508)" fill="#a8bfff"/>
        <path id="Path_6564" data-name="Path 6564" d="M11.995,63.605a3.629,3.629,0,1,0,3.627-3.63,3.629,3.629,0,0,0-3.627,3.63" transform="translate(3.378 96.885)" fill="#a8bfff"/>
        <path id="Path_6565" data-name="Path 6565" d="M11.995,75.6a3.629,3.629,0,1,0,3.627-3.627A3.629,3.629,0,0,0,11.995,75.6" transform="translate(3.378 120.265)" fill="#a8bfff"/>
        <path id="Path_6566" data-name="Path 6566" d="M11.995,87.6a3.629,3.629,0,1,0,3.627-3.63,3.626,3.626,0,0,0-3.627,3.63" transform="translate(3.378 143.64)" fill="#a8bfff"/>
        <path id="Path_6567" data-name="Path 6567" d="M11.995,99.59a3.629,3.629,0,1,0,3.627-3.63,3.629,3.629,0,0,0-3.627,3.63" transform="translate(3.378 167.018)" fill="#a8bfff"/>
      </g>
    </g>
  </g>
</svg>
