<svg xmlns="http://www.w3.org/2000/svg" xmlns:xlink="http://www.w3.org/1999/xlink" width="270.53" height="270.53" viewBox="0 0 270.53 270.53">
  <defs>
    <clipPath id="clip-path">
      <path id="Path_6568" data-name="Path 6568" d="M6.782,142.048A135.265,135.265,0,1,0,142.047,6.783,135.267,135.267,0,0,0,6.782,142.048" transform="translate(-6.782 -6.783)" fill="#de89db"/>
    </clipPath>
  </defs>
  <g id="Group_388" data-name="Group 388" transform="translate(-6.782 -6.783)" opacity="0.434">
    <g id="Group_385" data-name="Group 385" transform="translate(6.782 6.783)" clip-path="url(#clip-path)">
      <path id="Path_6491" data-name="Path 6491" d="M107.955,27.048a3.058,3.058,0,1,0,3.06-3.057,3.059,3.059,0,0,0-3.06,3.057" transform="translate(143.504 18.778)" fill="#de89db"/>
      <path id="Path_6492" data-name="Path 6492" d="M107.955,39.045a3.058,3.058,0,1,0,3.06-3.06,3.057,3.057,0,0,0-3.06,3.06" transform="translate(143.504 36.595)" fill="#de89db"/>
      <path id="Path_6493" data-name="Path 6493" d="M107.955,51.04a3.058,3.058,0,1,0,3.06-3.06,3.059,3.059,0,0,0-3.06,3.06" transform="translate(143.504 54.413)" fill="#de89db"/>
      <path id="Path_6494" data-name="Path 6494" d="M107.955,63.035a3.058,3.058,0,1,0,3.06-3.06,3.059,3.059,0,0,0-3.06,3.06" transform="translate(143.504 72.23)" fill="#de89db"/>
      <path id="Path_6495" data-name="Path 6495" d="M107.955,75.028a3.058,3.058,0,1,0,3.06-3.057,3.059,3.059,0,0,0-3.06,3.057" transform="translate(143.504 90.05)" fill="#de89db"/>
      <path id="Path_6496" data-name="Path 6496" d="M107.955,87.025a3.058,3.058,0,1,0,3.06-3.06,3.057,3.057,0,0,0-3.06,3.06" transform="translate(143.504 107.866)" fill="#de89db"/>
      <path id="Path_6497" data-name="Path 6497" d="M107.955,99.02a3.058,3.058,0,1,0,3.06-3.06,3.059,3.059,0,0,0-3.06,3.06" transform="translate(143.504 125.684)" fill="#de89db"/>
      <path id="Path_6498" data-name="Path 6498" d="M95.96,15.055A3.058,3.058,0,1,0,99.017,12a3.059,3.059,0,0,0-3.057,3.06" transform="translate(125.686 0.959)" fill="#de89db"/>
      <path id="Path_6499" data-name="Path 6499" d="M95.96,27.048a3.058,3.058,0,1,0,3.057-3.057,3.059,3.059,0,0,0-3.057,3.057" transform="translate(125.686 18.778)" fill="#de89db"/>
      <path id="Path_6500" data-name="Path 6500" d="M95.96,39.045a3.058,3.058,0,1,0,3.057-3.06,3.056,3.056,0,0,0-3.057,3.06" transform="translate(125.686 36.595)" fill="#de89db"/>
      <path id="Path_6501" data-name="Path 6501" d="M95.96,51.04a3.058,3.058,0,1,0,3.057-3.06,3.059,3.059,0,0,0-3.057,3.06" transform="translate(125.686 54.413)" fill="#de89db"/>
      <path id="Path_6502" data-name="Path 6502" d="M95.96,63.035a3.058,3.058,0,1,0,3.057-3.06,3.059,3.059,0,0,0-3.057,3.06" transform="translate(125.686 72.23)" fill="#de89db"/>
      <path id="Path_6503" data-name="Path 6503" d="M95.96,75.028a3.058,3.058,0,1,0,3.057-3.057,3.059,3.059,0,0,0-3.057,3.057" transform="translate(125.686 90.05)" fill="#de89db"/>
      <path id="Path_6504" data-name="Path 6504" d="M95.96,87.025a3.058,3.058,0,1,0,3.057-3.06,3.056,3.056,0,0,0-3.057,3.06" transform="translate(125.686 107.866)" fill="#de89db"/>
      <path id="Path_6505" data-name="Path 6505" d="M95.96,99.02a3.058,3.058,0,1,0,3.057-3.06,3.059,3.059,0,0,0-3.057,3.06" transform="translate(125.686 125.684)" fill="#de89db"/>
      <path id="Path_6506" data-name="Path 6506" d="M95.96,111.012a3.058,3.058,0,1,0,3.057-3.057,3.059,3.059,0,0,0-3.057,3.057" transform="translate(125.686 143.502)" fill="#de89db"/>
      <path id="Path_6507" data-name="Path 6507" d="M83.965,15.055A3.06,3.06,0,1,0,87.025,12a3.059,3.059,0,0,0-3.06,3.06" transform="translate(107.869 0.959)" fill="#de89db"/>
      <path id="Path_6508" data-name="Path 6508" d="M83.965,27.048a3.06,3.06,0,1,0,3.06-3.057,3.059,3.059,0,0,0-3.06,3.057" transform="translate(107.869 18.778)" fill="#de89db"/>
      <path id="Path_6509" data-name="Path 6509" d="M83.965,39.045a3.06,3.06,0,1,0,3.06-3.06,3.057,3.057,0,0,0-3.06,3.06" transform="translate(107.869 36.595)" fill="#de89db"/>
      <path id="Path_6510" data-name="Path 6510" d="M83.965,51.04a3.06,3.06,0,1,0,3.06-3.06,3.059,3.059,0,0,0-3.06,3.06" transform="translate(107.869 54.413)" fill="#de89db"/>
      <path id="Path_6511" data-name="Path 6511" d="M83.965,63.035a3.06,3.06,0,1,0,3.06-3.06,3.059,3.059,0,0,0-3.06,3.06" transform="translate(107.869 72.23)" fill="#de89db"/>
      <path id="Path_6512" data-name="Path 6512" d="M83.965,75.028a3.06,3.06,0,1,0,3.06-3.057,3.059,3.059,0,0,0-3.06,3.057" transform="translate(107.869 90.05)" fill="#de89db"/>
      <path id="Path_6513" data-name="Path 6513" d="M83.965,87.025a3.06,3.06,0,1,0,3.06-3.06,3.057,3.057,0,0,0-3.06,3.06" transform="translate(107.869 107.866)" fill="#de89db"/>
      <path id="Path_6514" data-name="Path 6514" d="M83.965,99.02a3.06,3.06,0,1,0,3.06-3.06,3.059,3.059,0,0,0-3.06,3.06" transform="translate(107.869 125.684)" fill="#de89db"/>
      <path id="Path_6515" data-name="Path 6515" d="M83.965,111.012a3.06,3.06,0,1,0,3.06-3.057,3.059,3.059,0,0,0-3.06,3.057" transform="translate(107.869 143.502)" fill="#de89db"/>
      <path id="Path_6516" data-name="Path 6516" d="M71.97,15.055A3.06,3.06,0,1,0,75.03,12a3.059,3.059,0,0,0-3.06,3.06" transform="translate(90.051 0.959)" fill="#de89db"/>
      <path id="Path_6517" data-name="Path 6517" d="M71.97,27.048a3.06,3.06,0,1,0,3.06-3.057,3.059,3.059,0,0,0-3.06,3.057" transform="translate(90.051 18.778)" fill="#de89db"/>
      <path id="Path_6518" data-name="Path 6518" d="M71.97,39.045a3.06,3.06,0,1,0,3.06-3.06,3.057,3.057,0,0,0-3.06,3.06" transform="translate(90.051 36.595)" fill="#de89db"/>
      <path id="Path_6519" data-name="Path 6519" d="M71.97,51.04a3.06,3.06,0,1,0,3.06-3.06,3.059,3.059,0,0,0-3.06,3.06" transform="translate(90.051 54.413)" fill="#de89db"/>
      <path id="Path_6520" data-name="Path 6520" d="M71.97,63.035a3.06,3.06,0,1,0,3.06-3.06,3.059,3.059,0,0,0-3.06,3.06" transform="translate(90.051 72.23)" fill="#de89db"/>
      <path id="Path_6521" data-name="Path 6521" d="M71.97,75.028a3.06,3.06,0,1,0,3.06-3.057,3.059,3.059,0,0,0-3.06,3.057" transform="translate(90.051 90.05)" fill="#de89db"/>
      <path id="Path_6522" data-name="Path 6522" d="M71.97,87.025a3.06,3.06,0,1,0,3.06-3.06,3.057,3.057,0,0,0-3.06,3.06" transform="translate(90.051 107.866)" fill="#de89db"/>
      <path id="Path_6523" data-name="Path 6523" d="M71.97,99.02a3.06,3.06,0,1,0,3.06-3.06,3.059,3.059,0,0,0-3.06,3.06" transform="translate(90.051 125.684)" fill="#de89db"/>
      <path id="Path_6524" data-name="Path 6524" d="M71.97,111.012a3.06,3.06,0,1,0,3.06-3.057,3.059,3.059,0,0,0-3.06,3.057" transform="translate(90.051 143.502)" fill="#de89db"/>
      <path id="Path_6525" data-name="Path 6525" d="M59.975,15.055A3.058,3.058,0,1,0,63.035,12a3.059,3.059,0,0,0-3.06,3.06" transform="translate(72.233 0.959)" fill="#de89db"/>
      <path id="Path_6526" data-name="Path 6526" d="M59.975,27.048a3.058,3.058,0,1,0,3.06-3.057,3.059,3.059,0,0,0-3.06,3.057" transform="translate(72.233 18.778)" fill="#de89db"/>
      <path id="Path_6527" data-name="Path 6527" d="M59.975,39.045a3.058,3.058,0,1,0,3.06-3.06,3.057,3.057,0,0,0-3.06,3.06" transform="translate(72.233 36.595)" fill="#de89db"/>
      <path id="Path_6528" data-name="Path 6528" d="M59.975,51.04a3.058,3.058,0,1,0,3.06-3.06,3.059,3.059,0,0,0-3.06,3.06" transform="translate(72.233 54.413)" fill="#de89db"/>
      <path id="Path_6529" data-name="Path 6529" d="M59.975,63.035a3.058,3.058,0,1,0,3.06-3.06,3.059,3.059,0,0,0-3.06,3.06" transform="translate(72.233 72.23)" fill="#de89db"/>
      <path id="Path_6530" data-name="Path 6530" d="M59.975,75.028a3.058,3.058,0,1,0,3.06-3.057,3.059,3.059,0,0,0-3.06,3.057" transform="translate(72.233 90.05)" fill="#de89db"/>
      <path id="Path_6531" data-name="Path 6531" d="M59.975,87.025a3.058,3.058,0,1,0,3.06-3.06,3.057,3.057,0,0,0-3.06,3.06" transform="translate(72.233 107.866)" fill="#de89db"/>
      <path id="Path_6532" data-name="Path 6532" d="M59.975,99.02a3.058,3.058,0,1,0,3.06-3.06,3.059,3.059,0,0,0-3.06,3.06" transform="translate(72.233 125.684)" fill="#de89db"/>
      <path id="Path_6533" data-name="Path 6533" d="M59.975,111.012a3.058,3.058,0,1,0,3.06-3.057,3.059,3.059,0,0,0-3.06,3.057" transform="translate(72.233 143.502)" fill="#de89db"/>
      <path id="Path_6534" data-name="Path 6534" d="M47.98,15.055A3.058,3.058,0,1,0,51.037,12a3.059,3.059,0,0,0-3.057,3.06" transform="translate(54.415 0.959)" fill="#de89db"/>
      <path id="Path_6535" data-name="Path 6535" d="M47.98,27.048a3.058,3.058,0,1,0,3.057-3.057,3.059,3.059,0,0,0-3.057,3.057" transform="translate(54.415 18.778)" fill="#de89db"/>
      <path id="Path_6536" data-name="Path 6536" d="M47.98,39.045a3.058,3.058,0,1,0,3.057-3.06,3.056,3.056,0,0,0-3.057,3.06" transform="translate(54.415 36.595)" fill="#de89db"/>
      <path id="Path_6537" data-name="Path 6537" d="M47.98,51.04a3.058,3.058,0,1,0,3.057-3.06,3.059,3.059,0,0,0-3.057,3.06" transform="translate(54.415 54.413)" fill="#de89db"/>
      <path id="Path_6538" data-name="Path 6538" d="M47.98,63.035a3.058,3.058,0,1,0,3.057-3.06,3.059,3.059,0,0,0-3.057,3.06" transform="translate(54.415 72.23)" fill="#de89db"/>
      <path id="Path_6539" data-name="Path 6539" d="M47.98,75.028a3.058,3.058,0,1,0,3.057-3.057,3.059,3.059,0,0,0-3.057,3.057" transform="translate(54.415 90.05)" fill="#de89db"/>
      <path id="Path_6540" data-name="Path 6540" d="M47.98,87.025a3.058,3.058,0,1,0,3.057-3.06,3.056,3.056,0,0,0-3.057,3.06" transform="translate(54.415 107.866)" fill="#de89db"/>
      <path id="Path_6541" data-name="Path 6541" d="M47.98,99.02a3.058,3.058,0,1,0,3.057-3.06,3.059,3.059,0,0,0-3.057,3.06" transform="translate(54.415 125.684)" fill="#de89db"/>
      <path id="Path_6542" data-name="Path 6542" d="M47.98,111.012a3.058,3.058,0,1,0,3.057-3.057,3.059,3.059,0,0,0-3.057,3.057" transform="translate(54.415 143.502)" fill="#de89db"/>
      <path id="Path_6543" data-name="Path 6543" d="M35.985,15.055A3.06,3.06,0,1,0,39.045,12a3.059,3.059,0,0,0-3.06,3.06" transform="translate(36.597 0.959)" fill="#de89db"/>
      <path id="Path_6544" data-name="Path 6544" d="M35.985,27.048a3.06,3.06,0,1,0,3.06-3.057,3.059,3.059,0,0,0-3.06,3.057" transform="translate(36.597 18.778)" fill="#de89db"/>
      <path id="Path_6545" data-name="Path 6545" d="M35.985,39.045a3.06,3.06,0,1,0,3.06-3.06,3.057,3.057,0,0,0-3.06,3.06" transform="translate(36.597 36.595)" fill="#de89db"/>
      <path id="Path_6546" data-name="Path 6546" d="M35.985,51.04a3.06,3.06,0,1,0,3.06-3.06,3.059,3.059,0,0,0-3.06,3.06" transform="translate(36.597 54.413)" fill="#de89db"/>
      <path id="Path_6547" data-name="Path 6547" d="M35.985,63.035a3.06,3.06,0,1,0,3.06-3.06,3.059,3.059,0,0,0-3.06,3.06" transform="translate(36.597 72.23)" fill="#de89db"/>
      <path id="Path_6548" data-name="Path 6548" d="M35.985,75.028a3.06,3.06,0,1,0,3.06-3.057,3.059,3.059,0,0,0-3.06,3.057" transform="translate(36.597 90.05)" fill="#de89db"/>
      <path id="Path_6549" data-name="Path 6549" d="M35.985,87.025a3.06,3.06,0,1,0,3.06-3.06,3.057,3.057,0,0,0-3.06,3.06" transform="translate(36.597 107.866)" fill="#de89db"/>
      <path id="Path_6550" data-name="Path 6550" d="M35.985,99.02a3.06,3.06,0,1,0,3.06-3.06,3.059,3.059,0,0,0-3.06,3.06" transform="translate(36.597 125.684)" fill="#de89db"/>
      <path id="Path_6551" data-name="Path 6551" d="M35.985,111.012a3.06,3.06,0,1,0,3.06-3.057,3.059,3.059,0,0,0-3.06,3.057" transform="translate(36.597 143.502)" fill="#de89db"/>
      <path id="Path_6552" data-name="Path 6552" d="M23.99,15.055A3.058,3.058,0,1,0,27.05,12a3.059,3.059,0,0,0-3.06,3.06" transform="translate(18.779 0.959)" fill="#de89db"/>
      <path id="Path_6553" data-name="Path 6553" d="M23.99,27.048a3.058,3.058,0,1,0,3.06-3.057,3.059,3.059,0,0,0-3.06,3.057" transform="translate(18.779 18.778)" fill="#de89db"/>
      <path id="Path_6554" data-name="Path 6554" d="M23.99,39.045a3.058,3.058,0,1,0,3.06-3.06,3.057,3.057,0,0,0-3.06,3.06" transform="translate(18.779 36.595)" fill="#de89db"/>
      <path id="Path_6555" data-name="Path 6555" d="M23.99,51.04a3.058,3.058,0,1,0,3.06-3.06,3.059,3.059,0,0,0-3.06,3.06" transform="translate(18.779 54.413)" fill="#de89db"/>
      <path id="Path_6556" data-name="Path 6556" d="M23.99,63.035a3.058,3.058,0,1,0,3.06-3.06,3.059,3.059,0,0,0-3.06,3.06" transform="translate(18.779 72.23)" fill="#de89db"/>
      <path id="Path_6557" data-name="Path 6557" d="M23.99,75.028a3.058,3.058,0,1,0,3.06-3.057,3.059,3.059,0,0,0-3.06,3.057" transform="translate(18.779 90.05)" fill="#de89db"/>
      <path id="Path_6558" data-name="Path 6558" d="M23.99,87.025a3.058,3.058,0,1,0,3.06-3.06,3.057,3.057,0,0,0-3.06,3.06" transform="translate(18.779 107.866)" fill="#de89db"/>
      <path id="Path_6559" data-name="Path 6559" d="M23.99,99.02a3.058,3.058,0,1,0,3.06-3.06,3.059,3.059,0,0,0-3.06,3.06" transform="translate(18.779 125.684)" fill="#de89db"/>
      <path id="Path_6560" data-name="Path 6560" d="M23.99,111.012a3.058,3.058,0,1,0,3.06-3.057,3.059,3.059,0,0,0-3.06,3.057" transform="translate(18.779 143.502)" fill="#de89db"/>
      <path id="Path_6561" data-name="Path 6561" d="M12,27.048a3.058,3.058,0,1,0,3.057-3.057A3.059,3.059,0,0,0,12,27.048" transform="translate(0.962 18.778)" fill="#de89db"/>
      <path id="Path_6562" data-name="Path 6562" d="M12,39.045a3.058,3.058,0,1,0,3.057-3.06A3.056,3.056,0,0,0,12,39.045" transform="translate(0.962 36.595)" fill="#de89db"/>
      <path id="Path_6563" data-name="Path 6563" d="M12,51.04a3.058,3.058,0,1,0,3.057-3.06A3.059,3.059,0,0,0,12,51.04" transform="translate(0.962 54.413)" fill="#de89db"/>
      <path id="Path_6564" data-name="Path 6564" d="M12,63.035a3.058,3.058,0,1,0,3.057-3.06A3.059,3.059,0,0,0,12,63.035" transform="translate(0.962 72.23)" fill="#de89db"/>
      <path id="Path_6565" data-name="Path 6565" d="M12,75.028a3.058,3.058,0,1,0,3.057-3.057A3.059,3.059,0,0,0,12,75.028" transform="translate(0.962 90.05)" fill="#de89db"/>
      <path id="Path_6566" data-name="Path 6566" d="M12,87.025a3.058,3.058,0,1,0,3.057-3.06A3.056,3.056,0,0,0,12,87.025" transform="translate(0.962 107.866)" fill="#de89db"/>
      <path id="Path_6567" data-name="Path 6567" d="M12,99.02a3.058,3.058,0,1,0,3.057-3.06A3.059,3.059,0,0,0,12,99.02" transform="translate(0.962 125.684)" fill="#de89db"/>
    </g>
  </g>
</svg>
