<svg xmlns="http://www.w3.org/2000/svg" xmlns:xlink="http://www.w3.org/1999/xlink" width="194.376" height="242.424" viewBox="0 0 194.376 242.424">
  <defs>
    <clipPath id="clip-path">
      <path id="Path_6568" data-name="Path 6568" d="M6.782,81.949A75.166,75.166,0,1,0,81.948,6.783,75.167,75.167,0,0,0,6.782,81.949" transform="translate(-6.782 -6.783)" fill="#a8bfff"/>
    </clipPath>
  </defs>
  <g id="Group_451" data-name="Group 451" transform="translate(-1151.22 -3100.263)">
    <ellipse id="Ellipse_11" data-name="Ellipse 11" cx="97.188" cy="97.188" rx="97.188" ry="97.188" transform="translate(1151.22 3148.311)" fill="#fad2fa" opacity="0.188"/>
    <g id="Group_387" data-name="Group 387" transform="translate(1151.416 3100.263)" opacity="0.8">
      <g id="Group_385" data-name="Group 385" transform="translate(0 0)" clip-path="url(#clip-path)">
        <path id="Path_6491" data-name="Path 6491" d="M107.955,25.69a1.7,1.7,0,1,0,1.7-1.7,1.7,1.7,0,0,0-1.7,1.7" transform="translate(31.779 -0.224)" fill="#a8bfff"/>
        <path id="Path_6492" data-name="Path 6492" d="M107.955,37.685a1.7,1.7,0,1,0,1.7-1.7,1.7,1.7,0,0,0-1.7,1.7" transform="translate(31.779 4.347)" fill="#a8bfff"/>
        <path id="Path_6493" data-name="Path 6493" d="M107.955,49.68a1.7,1.7,0,1,0,1.7-1.7,1.7,1.7,0,0,0-1.7,1.7" transform="translate(31.779 8.919)" fill="#a8bfff"/>
        <path id="Path_6494" data-name="Path 6494" d="M107.955,61.675a1.7,1.7,0,1,0,1.7-1.7,1.7,1.7,0,0,0-1.7,1.7" transform="translate(31.779 13.491)" fill="#a8bfff"/>
        <path id="Path_6495" data-name="Path 6495" d="M107.955,73.67a1.7,1.7,0,1,0,1.7-1.7,1.7,1.7,0,0,0-1.7,1.7" transform="translate(31.779 18.063)" fill="#a8bfff"/>
        <path id="Path_6496" data-name="Path 6496" d="M107.955,85.665a1.7,1.7,0,1,0,1.7-1.7,1.7,1.7,0,0,0-1.7,1.7" transform="translate(31.779 22.634)" fill="#a8bfff"/>
        <path id="Path_6497" data-name="Path 6497" d="M107.955,97.66a1.7,1.7,0,1,0,1.7-1.7,1.7,1.7,0,0,0-1.7,1.7" transform="translate(31.779 27.206)" fill="#a8bfff"/>
        <path id="Path_6498" data-name="Path 6498" d="M95.96,13.7a1.7,1.7,0,1,0,1.7-1.7,1.7,1.7,0,0,0-1.7,1.7" transform="translate(27.208 -4.796)" fill="#a8bfff"/>
        <path id="Path_6499" data-name="Path 6499" d="M95.96,25.69a1.7,1.7,0,1,0,1.7-1.7,1.7,1.7,0,0,0-1.7,1.7" transform="translate(27.208 -0.224)" fill="#a8bfff"/>
        <path id="Path_6500" data-name="Path 6500" d="M95.96,37.685a1.7,1.7,0,1,0,1.7-1.7,1.7,1.7,0,0,0-1.7,1.7" transform="translate(27.208 4.347)" fill="#a8bfff"/>
        <path id="Path_6501" data-name="Path 6501" d="M95.96,49.68a1.7,1.7,0,1,0,1.7-1.7,1.7,1.7,0,0,0-1.7,1.7" transform="translate(27.208 8.919)" fill="#a8bfff"/>
        <path id="Path_6502" data-name="Path 6502" d="M95.96,61.675a1.7,1.7,0,1,0,1.7-1.7,1.7,1.7,0,0,0-1.7,1.7" transform="translate(27.208 13.491)" fill="#a8bfff"/>
        <path id="Path_6503" data-name="Path 6503" d="M95.96,73.67a1.7,1.7,0,1,0,1.7-1.7,1.7,1.7,0,0,0-1.7,1.7" transform="translate(27.208 18.063)" fill="#a8bfff"/>
        <path id="Path_6504" data-name="Path 6504" d="M95.96,85.665a1.7,1.7,0,1,0,1.7-1.7,1.7,1.7,0,0,0-1.7,1.7" transform="translate(27.208 22.634)" fill="#a8bfff"/>
        <path id="Path_6505" data-name="Path 6505" d="M95.96,97.66a1.7,1.7,0,1,0,1.7-1.7,1.7,1.7,0,0,0-1.7,1.7" transform="translate(27.208 27.206)" fill="#a8bfff"/>
        <path id="Path_6506" data-name="Path 6506" d="M95.96,109.654a1.7,1.7,0,1,0,1.7-1.7,1.7,1.7,0,0,0-1.7,1.7" transform="translate(27.208 31.778)" fill="#a8bfff"/>
        <path id="Path_6507" data-name="Path 6507" d="M83.965,13.7a1.7,1.7,0,1,0,1.7-1.7,1.7,1.7,0,0,0-1.7,1.7" transform="translate(22.636 -4.796)" fill="#a8bfff"/>
        <path id="Path_6508" data-name="Path 6508" d="M83.965,25.69a1.7,1.7,0,1,0,1.7-1.7,1.7,1.7,0,0,0-1.7,1.7" transform="translate(22.636 -0.224)" fill="#a8bfff"/>
        <path id="Path_6509" data-name="Path 6509" d="M83.965,37.685a1.7,1.7,0,1,0,1.7-1.7,1.7,1.7,0,0,0-1.7,1.7" transform="translate(22.636 4.347)" fill="#a8bfff"/>
        <path id="Path_6510" data-name="Path 6510" d="M83.965,49.68a1.7,1.7,0,1,0,1.7-1.7,1.7,1.7,0,0,0-1.7,1.7" transform="translate(22.636 8.919)" fill="#a8bfff"/>
        <path id="Path_6511" data-name="Path 6511" d="M83.965,61.675a1.7,1.7,0,1,0,1.7-1.7,1.7,1.7,0,0,0-1.7,1.7" transform="translate(22.636 13.491)" fill="#a8bfff"/>
        <path id="Path_6512" data-name="Path 6512" d="M83.965,73.67a1.7,1.7,0,1,0,1.7-1.7,1.7,1.7,0,0,0-1.7,1.7" transform="translate(22.636 18.063)" fill="#a8bfff"/>
        <path id="Path_6513" data-name="Path 6513" d="M83.965,85.665a1.7,1.7,0,1,0,1.7-1.7,1.7,1.7,0,0,0-1.7,1.7" transform="translate(22.636 22.634)" fill="#a8bfff"/>
        <path id="Path_6514" data-name="Path 6514" d="M83.965,97.66a1.7,1.7,0,1,0,1.7-1.7,1.7,1.7,0,0,0-1.7,1.7" transform="translate(22.636 27.206)" fill="#a8bfff"/>
        <path id="Path_6515" data-name="Path 6515" d="M83.965,109.654a1.7,1.7,0,1,0,1.7-1.7,1.7,1.7,0,0,0-1.7,1.7" transform="translate(22.636 31.778)" fill="#a8bfff"/>
        <path id="Path_6516" data-name="Path 6516" d="M71.97,13.7a1.7,1.7,0,1,0,1.7-1.7,1.7,1.7,0,0,0-1.7,1.7" transform="translate(18.064 -4.796)" fill="#a8bfff"/>
        <path id="Path_6517" data-name="Path 6517" d="M71.97,25.69a1.7,1.7,0,1,0,1.7-1.7,1.7,1.7,0,0,0-1.7,1.7" transform="translate(18.064 -0.224)" fill="#a8bfff"/>
        <path id="Path_6518" data-name="Path 6518" d="M71.97,37.685a1.7,1.7,0,1,0,1.7-1.7,1.7,1.7,0,0,0-1.7,1.7" transform="translate(18.064 4.347)" fill="#a8bfff"/>
        <path id="Path_6519" data-name="Path 6519" d="M71.97,49.68a1.7,1.7,0,1,0,1.7-1.7,1.7,1.7,0,0,0-1.7,1.7" transform="translate(18.064 8.919)" fill="#a8bfff"/>
        <path id="Path_6520" data-name="Path 6520" d="M71.97,61.675a1.7,1.7,0,1,0,1.7-1.7,1.7,1.7,0,0,0-1.7,1.7" transform="translate(18.064 13.491)" fill="#a8bfff"/>
        <path id="Path_6521" data-name="Path 6521" d="M71.97,73.67a1.7,1.7,0,1,0,1.7-1.7,1.7,1.7,0,0,0-1.7,1.7" transform="translate(18.064 18.063)" fill="#a8bfff"/>
        <path id="Path_6522" data-name="Path 6522" d="M71.97,85.665a1.7,1.7,0,1,0,1.7-1.7,1.7,1.7,0,0,0-1.7,1.7" transform="translate(18.064 22.634)" fill="#a8bfff"/>
        <path id="Path_6523" data-name="Path 6523" d="M71.97,97.66a1.7,1.7,0,1,0,1.7-1.7,1.7,1.7,0,0,0-1.7,1.7" transform="translate(18.064 27.206)" fill="#a8bfff"/>
        <path id="Path_6524" data-name="Path 6524" d="M71.97,109.654a1.7,1.7,0,1,0,1.7-1.7,1.7,1.7,0,0,0-1.7,1.7" transform="translate(18.064 31.778)" fill="#a8bfff"/>
        <path id="Path_6525" data-name="Path 6525" d="M59.975,13.7a1.7,1.7,0,1,0,1.7-1.7,1.7,1.7,0,0,0-1.7,1.7" transform="translate(13.492 -4.796)" fill="#a8bfff"/>
        <path id="Path_6526" data-name="Path 6526" d="M59.975,25.69a1.7,1.7,0,1,0,1.7-1.7,1.7,1.7,0,0,0-1.7,1.7" transform="translate(13.492 -0.224)" fill="#a8bfff"/>
        <path id="Path_6527" data-name="Path 6527" d="M59.975,37.685a1.7,1.7,0,1,0,1.7-1.7,1.7,1.7,0,0,0-1.7,1.7" transform="translate(13.492 4.347)" fill="#a8bfff"/>
        <path id="Path_6528" data-name="Path 6528" d="M59.975,49.68a1.7,1.7,0,1,0,1.7-1.7,1.7,1.7,0,0,0-1.7,1.7" transform="translate(13.492 8.919)" fill="#a8bfff"/>
        <path id="Path_6529" data-name="Path 6529" d="M59.975,61.675a1.7,1.7,0,1,0,1.7-1.7,1.7,1.7,0,0,0-1.7,1.7" transform="translate(13.492 13.491)" fill="#a8bfff"/>
        <path id="Path_6530" data-name="Path 6530" d="M59.975,73.67a1.7,1.7,0,1,0,1.7-1.7,1.7,1.7,0,0,0-1.7,1.7" transform="translate(13.492 18.063)" fill="#a8bfff"/>
        <path id="Path_6531" data-name="Path 6531" d="M59.975,85.665a1.7,1.7,0,1,0,1.7-1.7,1.7,1.7,0,0,0-1.7,1.7" transform="translate(13.492 22.634)" fill="#a8bfff"/>
        <path id="Path_6532" data-name="Path 6532" d="M59.975,97.66a1.7,1.7,0,1,0,1.7-1.7,1.7,1.7,0,0,0-1.7,1.7" transform="translate(13.492 27.206)" fill="#a8bfff"/>
        <path id="Path_6533" data-name="Path 6533" d="M59.975,109.654a1.7,1.7,0,1,0,1.7-1.7,1.7,1.7,0,0,0-1.7,1.7" transform="translate(13.492 31.778)" fill="#a8bfff"/>
        <path id="Path_6534" data-name="Path 6534" d="M47.98,13.7a1.7,1.7,0,1,0,1.7-1.7,1.7,1.7,0,0,0-1.7,1.7" transform="translate(8.92 -4.796)" fill="#a8bfff"/>
        <path id="Path_6535" data-name="Path 6535" d="M47.98,25.69a1.7,1.7,0,1,0,1.7-1.7,1.7,1.7,0,0,0-1.7,1.7" transform="translate(8.92 -0.224)" fill="#a8bfff"/>
        <path id="Path_6536" data-name="Path 6536" d="M47.98,37.685a1.7,1.7,0,1,0,1.7-1.7,1.7,1.7,0,0,0-1.7,1.7" transform="translate(8.92 4.347)" fill="#a8bfff"/>
        <path id="Path_6537" data-name="Path 6537" d="M47.98,49.68a1.7,1.7,0,1,0,1.7-1.7,1.7,1.7,0,0,0-1.7,1.7" transform="translate(8.92 8.919)" fill="#a8bfff"/>
        <path id="Path_6538" data-name="Path 6538" d="M47.98,61.675a1.7,1.7,0,1,0,1.7-1.7,1.7,1.7,0,0,0-1.7,1.7" transform="translate(8.92 13.491)" fill="#a8bfff"/>
        <path id="Path_6539" data-name="Path 6539" d="M47.98,73.67a1.7,1.7,0,1,0,1.7-1.7,1.7,1.7,0,0,0-1.7,1.7" transform="translate(8.92 18.063)" fill="#a8bfff"/>
        <path id="Path_6540" data-name="Path 6540" d="M47.98,85.665a1.7,1.7,0,1,0,1.7-1.7,1.7,1.7,0,0,0-1.7,1.7" transform="translate(8.92 22.634)" fill="#a8bfff"/>
        <path id="Path_6541" data-name="Path 6541" d="M47.98,97.66a1.7,1.7,0,1,0,1.7-1.7,1.7,1.7,0,0,0-1.7,1.7" transform="translate(8.92 27.206)" fill="#a8bfff"/>
        <path id="Path_6542" data-name="Path 6542" d="M47.98,109.654a1.7,1.7,0,1,0,1.7-1.7,1.7,1.7,0,0,0-1.7,1.7" transform="translate(8.92 31.778)" fill="#a8bfff"/>
        <path id="Path_6543" data-name="Path 6543" d="M35.985,13.7a1.7,1.7,0,1,0,1.7-1.7,1.7,1.7,0,0,0-1.7,1.7" transform="translate(4.349 -4.796)" fill="#a8bfff"/>
        <path id="Path_6544" data-name="Path 6544" d="M35.985,25.69a1.7,1.7,0,1,0,1.7-1.7,1.7,1.7,0,0,0-1.7,1.7" transform="translate(4.349 -0.224)" fill="#a8bfff"/>
        <path id="Path_6545" data-name="Path 6545" d="M35.985,37.685a1.7,1.7,0,1,0,1.7-1.7,1.7,1.7,0,0,0-1.7,1.7" transform="translate(4.349 4.347)" fill="#a8bfff"/>
        <path id="Path_6546" data-name="Path 6546" d="M35.985,49.68a1.7,1.7,0,1,0,1.7-1.7,1.7,1.7,0,0,0-1.7,1.7" transform="translate(4.349 8.919)" fill="#a8bfff"/>
        <path id="Path_6547" data-name="Path 6547" d="M35.985,61.675a1.7,1.7,0,1,0,1.7-1.7,1.7,1.7,0,0,0-1.7,1.7" transform="translate(4.349 13.491)" fill="#a8bfff"/>
        <path id="Path_6548" data-name="Path 6548" d="M35.985,73.67a1.7,1.7,0,1,0,1.7-1.7,1.7,1.7,0,0,0-1.7,1.7" transform="translate(4.349 18.063)" fill="#a8bfff"/>
        <path id="Path_6549" data-name="Path 6549" d="M35.985,85.665a1.7,1.7,0,1,0,1.7-1.7,1.7,1.7,0,0,0-1.7,1.7" transform="translate(4.349 22.634)" fill="#a8bfff"/>
        <path id="Path_6550" data-name="Path 6550" d="M35.985,97.66a1.7,1.7,0,1,0,1.7-1.7,1.7,1.7,0,0,0-1.7,1.7" transform="translate(4.349 27.206)" fill="#a8bfff"/>
        <path id="Path_6551" data-name="Path 6551" d="M35.985,109.654a1.7,1.7,0,1,0,1.7-1.7,1.7,1.7,0,0,0-1.7,1.7" transform="translate(4.349 31.778)" fill="#a8bfff"/>
        <path id="Path_6552" data-name="Path 6552" d="M23.99,13.7a1.7,1.7,0,1,0,1.7-1.7,1.7,1.7,0,0,0-1.7,1.7" transform="translate(-0.223 -4.796)" fill="#a8bfff"/>
        <path id="Path_6553" data-name="Path 6553" d="M23.99,25.69a1.7,1.7,0,1,0,1.7-1.7,1.7,1.7,0,0,0-1.7,1.7" transform="translate(-0.223 -0.224)" fill="#a8bfff"/>
        <path id="Path_6554" data-name="Path 6554" d="M23.99,37.685a1.7,1.7,0,1,0,1.7-1.7,1.7,1.7,0,0,0-1.7,1.7" transform="translate(-0.223 4.347)" fill="#a8bfff"/>
        <path id="Path_6555" data-name="Path 6555" d="M23.99,49.68a1.7,1.7,0,1,0,1.7-1.7,1.7,1.7,0,0,0-1.7,1.7" transform="translate(-0.223 8.919)" fill="#a8bfff"/>
        <path id="Path_6556" data-name="Path 6556" d="M23.99,61.675a1.7,1.7,0,1,0,1.7-1.7,1.7,1.7,0,0,0-1.7,1.7" transform="translate(-0.223 13.491)" fill="#a8bfff"/>
        <path id="Path_6557" data-name="Path 6557" d="M23.99,73.67a1.7,1.7,0,1,0,1.7-1.7,1.7,1.7,0,0,0-1.7,1.7" transform="translate(-0.223 18.063)" fill="#a8bfff"/>
        <path id="Path_6558" data-name="Path 6558" d="M23.99,85.665a1.7,1.7,0,1,0,1.7-1.7,1.7,1.7,0,0,0-1.7,1.7" transform="translate(-0.223 22.634)" fill="#a8bfff"/>
        <path id="Path_6559" data-name="Path 6559" d="M23.99,97.66a1.7,1.7,0,1,0,1.7-1.7,1.7,1.7,0,0,0-1.7,1.7" transform="translate(-0.223 27.206)" fill="#a8bfff"/>
        <path id="Path_6560" data-name="Path 6560" d="M23.99,109.654a1.7,1.7,0,1,0,1.7-1.7,1.7,1.7,0,0,0-1.7,1.7" transform="translate(-0.223 31.778)" fill="#a8bfff"/>
        <path id="Path_6561" data-name="Path 6561" d="M12,25.69a1.7,1.7,0,1,0,1.7-1.7,1.7,1.7,0,0,0-1.7,1.7" transform="translate(-4.795 -0.224)" fill="#a8bfff"/>
        <path id="Path_6562" data-name="Path 6562" d="M12,37.685a1.7,1.7,0,1,0,1.7-1.7,1.7,1.7,0,0,0-1.7,1.7" transform="translate(-4.795 4.347)" fill="#a8bfff"/>
        <path id="Path_6563" data-name="Path 6563" d="M12,49.68a1.7,1.7,0,1,0,1.7-1.7,1.7,1.7,0,0,0-1.7,1.7" transform="translate(-4.795 8.919)" fill="#a8bfff"/>
        <path id="Path_6564" data-name="Path 6564" d="M12,61.675a1.7,1.7,0,1,0,1.7-1.7,1.7,1.7,0,0,0-1.7,1.7" transform="translate(-4.795 13.491)" fill="#a8bfff"/>
        <path id="Path_6565" data-name="Path 6565" d="M12,73.67a1.7,1.7,0,1,0,1.7-1.7,1.7,1.7,0,0,0-1.7,1.7" transform="translate(-4.795 18.063)" fill="#a8bfff"/>
        <path id="Path_6566" data-name="Path 6566" d="M12,85.665a1.7,1.7,0,1,0,1.7-1.7,1.7,1.7,0,0,0-1.7,1.7" transform="translate(-4.795 22.634)" fill="#a8bfff"/>
        <path id="Path_6567" data-name="Path 6567" d="M12,97.66a1.7,1.7,0,1,0,1.7-1.7,1.7,1.7,0,0,0-1.7,1.7" transform="translate(-4.795 27.206)" fill="#a8bfff"/>
      </g>
    </g>
  </g>
</svg>
