<svg xmlns="http://www.w3.org/2000/svg" xmlns:xlink="http://www.w3.org/1999/xlink" width="629.254" height="135.318" viewBox="0 0 629.254 135.318">
  <defs>
    <filter id="Path_15" x="0" y="3.963" width="133.058" height="126.038" filterUnits="userSpaceOnUse">
      <feOffset dx="3" dy="3" input="SourceAlpha"/>
      <feGaussianBlur stdDeviation="4.5" result="blur"/>
      <feFlood flood-color="#38096f" flood-opacity="0.482"/>
      <feComposite operator="in" in2="blur"/>
      <feComposite in="SourceGraphic"/>
    </filter>
    <filter id="Path_16" x="127.476" y="1.471" width="134.982" height="133.847" filterUnits="userSpaceOnUse">
      <feOffset dx="3" dy="3" input="SourceAlpha"/>
      <feGaussianBlur stdDeviation="4.5" result="blur-2"/>
      <feFlood flood-color="#38096f" flood-opacity="0.482"/>
      <feComposite operator="in" in2="blur-2"/>
      <feComposite in="SourceGraphic"/>
    </filter>
    <filter id="Path_17" x="256.877" y="0" width="132.601" height="130.001" filterUnits="userSpaceOnUse">
      <feOffset dx="3" dy="3" input="SourceAlpha"/>
      <feGaussianBlur stdDeviation="4.5" result="blur-3"/>
      <feFlood flood-color="#38096f" flood-opacity="0.482"/>
      <feComposite operator="in" in2="blur-3"/>
      <feComposite in="SourceGraphic"/>
    </filter>
    <filter id="Path_18" x="381.292" y="0.141" width="130.905" height="130.112" filterUnits="userSpaceOnUse">
      <feOffset dx="3" dy="3" input="SourceAlpha"/>
      <feGaussianBlur stdDeviation="4.5" result="blur-4"/>
      <feFlood flood-color="#38096f" flood-opacity="0.482"/>
      <feComposite operator="in" in2="blur-4"/>
      <feComposite in="SourceGraphic"/>
    </filter>
    <filter id="Path_19" x="506.615" y="4.172" width="122.639" height="127.738" filterUnits="userSpaceOnUse">
      <feOffset dx="3" dy="3" input="SourceAlpha"/>
      <feGaussianBlur stdDeviation="4.5" result="blur-5"/>
      <feFlood flood-color="#38096f" flood-opacity="0.482"/>
      <feComposite operator="in" in2="blur-5"/>
      <feComposite in="SourceGraphic"/>
    </filter>
  </defs>
  <g id="Group_423" data-name="Group 423" transform="translate(10.5 10.5)">
    <g transform="matrix(1, 0, 0, 1, -10.5, -10.5)" filter="url(#Path_15)">
      <path id="Path_15-2" data-name="Path 15" d="M8.918,178.415H88.264q6.791,25.467,18.9,41.084a2.813,2.813,0,0,1,.678,1.585c-.077.6-.678.907-1.81.907q-24.9-5.2-36.22-37.466H44.345Q32.007,210.788,4.729,222.669q-2.6,0-2.942-.453a3.87,3.87,0,0,1,.678-2.378,98.943,98.943,0,0,0,21.62-35.313H8.918Zm12.226,35.992H88.149v6.224H63.473v21.056H92.9v6.224H63.473v23.2h41.655v6.341H4.39v-6.341H46.723v-23.2H17.069v-6.224H46.723V220.631H21.143Z" transform="translate(8.71 -163.95)" fill="#fafbfa"/>
    </g>
    <g transform="matrix(1, 0, 0, 1, -10.5, -10.5)" filter="url(#Path_16)">
      <path id="Path_16-2" data-name="Path 16" d="M76.168,279.368v-19.41l-.114.114a21.71,21.71,0,0,1-10.526,3.621,64.865,64.865,0,0,1-8.941-.564q-2.716,15.28-18.9,21.392a54.467,54.467,0,0,0,3.171-16.864V229.172q.9-8.262,13.583-12.565l4.528,1.585a8.147,8.147,0,0,0-1.132,2.153h29.54q5.774,0,6.227,6.563v49.178q-.116,3.169-2.946,3.281Zm4.981-73.058a86.668,86.668,0,0,1-7.809-13.133l14.711-2.828c2.264,5.36,2.378,10.677,5.549,15.961v6.338H37.8q4.187-7.245,7.584-13.358,7.24-13.92,14.261-18.335,5.542-3.28,19.692-3.281-3.96,2.826-8.148,11.319Q64.96,202.348,58.4,206.309ZM56.7,233.36q2.262-.227,4.528-.228a21.33,21.33,0,0,1,14.261,5.1,6.708,6.708,0,0,1,.678.568V226.683H56.7Zm.114,20.827a15.885,15.885,0,0,1,6.11-1.925,77.7,77.7,0,0,1,13.243,1.132V246.15c-.907.074-1.773.114-2.6.114a29.767,29.767,0,0,1-3.51-.454,19.819,19.819,0,0,1-5.884-2.264,39.918,39.918,0,0,1-5.1-3.285c-.83-.527-1.622-.977-2.375-1.357Zm42.216-74.365h17.885v14.94h27.276v6.227H116.916v19.356h28.751l-.8,6.224H107.407q-8.378,0-8.377-8.487Zm.453,51.16h17.882v15.564h28.3v6.224h-28.3v20.461h28.3l-.8,6.224H108.086q-8.6,0-8.6-8.941Z" transform="translate(100.29 -165.7)" fill="#fafbfa"/>
    </g>
    <g transform="matrix(1, 0, 0, 1, -10.5, -10.5)" filter="url(#Path_17)">
      <path id="Path_17-2" data-name="Path 17" d="M103.625,235.979v44.258H85.968V237.9a28.33,28.33,0,0,1-3.171,1.471,31.3,31.3,0,0,1-7.47,2.378c-.6,0-.9-.867-.9-2.6q13.124-15.734,18.9-31.579h6a43.353,43.353,0,0,0-6.906-11.094h-17.2v-6.224H91.174a35.218,35.218,0,0,0,9.848-13.018,42.24,42.24,0,0,0,11.2,13.018h10.865v6.224H110.3a58.559,58.559,0,0,0-7.016,11.094h12.9a67.146,67.146,0,0,1-18.335,22.523,2.564,2.564,0,0,1-.564.453H100q2.489,1.355,3.624,5.431m37.013,1.585v35.881h39.387l-.9,6.791H129.2q-6.454,0-6.452-6.566v-65.2h17.885v22.863m11.2-54.1a45.746,45.746,0,0,0,10.98,13.018h14.6v6.224H160.9a65.73,65.73,0,0,0-9.055,15.168q-1.36-6.791-8.262-15.168H129.544v-6.224h12.79a35.348,35.348,0,0,0,9.509-13.018" transform="translate(192.95 -166.74)" fill="#fafbfa"/>
    </g>
    <g transform="matrix(1, 0, 0, 1, -10.5, -10.5)" filter="url(#Path_18)">
      <path id="Path_18-2" data-name="Path 18" d="M214.7,246.547H166.029a54.74,54.74,0,0,0,3.167-10.64H213.34v-6.224h-42.1v-12.9h36.9v-6.227h-36.9V198.215h41.426v-6.224H184.982a29.083,29.083,0,0,1,3.023-6.764,40.388,40.388,0,0,1,5.77-6.795c0-.725-.131-1.112-.386-1.155a5.571,5.571,0,0,0-1.925.45,35.607,35.607,0,0,0-10.19,5.767,34.705,34.705,0,0,0-7.752,8.5h-22.5a36.249,36.249,0,0,0-6.126-6.959,34.868,34.868,0,0,0-11.729-6.922,3.668,3.668,0,0,0-1.861-.447c-.427.044-.638.49-.638,1.347a87.721,87.721,0,0,1,6.15,8.01,46.268,46.268,0,0,1,2.905,4.971H113.509v6.224h40.523v12.337h-36v6.227h36v12.9H112.038v6.224h38.145a40.826,40.826,0,0,1-3.171,10.64h-36.22v6.224h32.939a42.375,42.375,0,0,1-4.756,6.68q-9.053,9.844-25.237,19.128c0,1.206,1.2,1.81,3.617,1.81q32.712-7.018,45.393-27.619h4.413q12.9,18.449,36.556,25.808a34.307,34.307,0,0,0,6.905,1.243q2.262,0,2.264-.679,0-.907-2.378-2.714-15.17-11.32-22.863-23.659H214.7Z" transform="translate(281 -166.64)" fill="#fafbfa"/>
    </g>
    <g transform="matrix(1, 0, 0, 1, -10.5, -10.5)" filter="url(#Path_19)">
      <path id="Path_19-2" data-name="Path 19" d="M189.756,266.65q13.24,5.32,23.769,5.32,5.658,0,7.245-2.717,2.6-7.809,2.6-28.411H198.811c-9.962,19.017-20.874,28.724-43.059,36.8a9.962,9.962,0,0,1-3.4-.339,4.85,4.85,0,0,1,.678-2.717c12.75-9.055,17.479-17.741,24.495-33.742H148.1v-6.449h32.029q1.7-4.3,2.942-8.6h22.073a76.624,76.624,0,0,1-3.281,8.6h35.539q6,0,6.338,6.224-1.244,21.845-5.206,30.447a14.6,14.6,0,0,1-7.241,6.566,33.134,33.134,0,0,1-10.64,1.585q-18.676-.569-30.9-6.227Zm51.5-44.708h-89.53V178.477h83.42q6.106.116,6.109,6.677Zm-72.1-25.694h18.789V184.7H169.154Zm0,19.242h18.789V202.472H169.154ZM223.938,184.7H204.924v11.544h19.014ZM204.924,215.49h19.014V202.472H204.924Z" transform="translate(369.01 -163.81)" fill="#fafbfa"/>
    </g>
    <path id="Path_20" data-name="Path 20" d="M94.276,215.9c-.255.564,27.756,8.991,35.149-20.649a55.314,55.314,0,0,0,1.172-6.335.281.281,0,0,0-.474-.238c-3.7,3.594-8.219,3.775-12.9,5.32a35.583,35.583,0,0,0-13.962,8.682,45.152,45.152,0,0,0-8.985,13.22" transform="translate(229.274 -150.431)" fill="#fafbfa"/>
  </g>
</svg>
