<svg id="Group_410" data-name="Group 410" xmlns="http://www.w3.org/2000/svg" xmlns:xlink="http://www.w3.org/1999/xlink" width="28.122" height="28.131" viewBox="0 0 28.122 28.131">
  <defs>
    <clipPath id="clip-path">
      <rect id="Rectangle_280" data-name="Rectangle 280" width="28.122" height="28.131" fill="#b8cafe"/>
    </clipPath>
  </defs>
  <g id="Group_409" data-name="Group 409" clip-path="url(#clip-path)">
    <path id="Path_6730" data-name="Path 6730" d="M14.046,0A14.066,14.066,0,1,1,0,14.109,14.081,14.081,0,0,1,14.046,0m-1,8.871.072.024v.31q0,3.207,0,6.414c0,.468-.008.937,0,1.406a.943.943,0,0,0,1.135.946A.97.97,0,0,0,15,16.947q0-3.881,0-7.762v-.38c.634.638,1.2,1.218,1.776,1.784a.929.929,0,1,0,1.322-1.3q-1.679-1.7-3.376-3.375A.89.89,0,0,0,13.408,5.9C12.269,7.027,11.14,8.163,10.01,9.3a.929.929,0,0,0,.331,1.517.889.889,0,0,0,1-.217c.575-.571,1.141-1.15,1.711-1.725M9.1,18.735c-.008-.055-.013-.074-.013-.093,0-.488,0-.976,0-1.465a.937.937,0,1,0-1.864-.018q-.01,1.216,0,2.431a.958.958,0,0,0,1.045,1.035q5.8,0,11.6,0A.951.951,0,0,0,20.9,19.611q.015-1.23,0-2.461a1.269,1.269,0,0,0-.1-.481.888.888,0,0,0-1.009-.514.9.9,0,0,0-.75.882c-.009.563,0,1.126,0,1.7Z" transform="translate(0 -0.001)" fill="#b8cafe"/>
  </g>
</svg>
