<svg xmlns="http://www.w3.org/2000/svg" xmlns:xlink="http://www.w3.org/1999/xlink" width="70.032" height="64.203" viewBox="0 0 70.032 64.203">
  <defs>
    <clipPath id="clip-path">
      <rect id="Rectangle_34" data-name="Rectangle 34" width="70.032" height="64.204" fill="#fbfbfb"/>
    </clipPath>
  </defs>
  <g id="Group_420" data-name="Group 420" transform="translate(70.032 64.203) rotate(180)">
    <g id="Group_53" data-name="Group 53" transform="translate(0 0)" clip-path="url(#clip-path)">
      <path id="Path_29" data-name="Path 29" d="M61.8,31.344c-25.683-.155-27.943-2.412-28.1-28.1-.155,25.683-2.412,27.94-28.1,28.1,25.686.155,27.943,2.412,28.1,28.1.153-25.683,2.412-27.94,28.1-28.1" transform="translate(8.228 4.764)" fill="#fbfbfb"/>
      <path id="Path_30" data-name="Path 30" d="M25.592,12.8c-11.7-.072-12.726-1.1-12.8-12.8C12.726,11.7,11.7,12.726,0,12.8c11.7.072,12.726,1.1,12.795,12.8.072-11.7,1.1-12.726,12.8-12.8" transform="translate(0 0)" fill="#fbfbfb"/>
    </g>
  </g>
</svg>
