<svg id="Group_55" data-name="Group 55" xmlns="http://www.w3.org/2000/svg" xmlns:xlink="http://www.w3.org/1999/xlink" width="75.801" height="69.492" viewBox="0 0 75.801 69.492">
  <defs>
    <clipPath id="clip-path">
      <rect id="Rectangle_34" data-name="Rectangle 34" width="75.801" height="69.492" fill="#fbfbfb"/>
    </clipPath>
  </defs>
  <g id="Group_53" data-name="Group 53" transform="translate(0 0)" clip-path="url(#clip-path)">
    <path id="Path_29" data-name="Path 29" d="M66.433,33.658c-27.8-.168-30.244-2.611-30.41-30.41-.168,27.8-2.611,30.242-30.413,30.41,27.8.168,30.244,2.611,30.413,30.41.166-27.8,2.611-30.242,30.41-30.41" transform="translate(9.368 5.424)" fill="#fbfbfb"/>
    <path id="Path_30" data-name="Path 30" d="M27.7,13.851C15.039,13.774,13.926,12.663,13.849,0,13.774,12.663,12.661,13.774,0,13.851c12.661.077,13.774,1.188,13.849,13.851.077-12.663,1.191-13.774,13.851-13.851" transform="translate(0 0.001)" fill="#fbfbfb"/>
  </g>
</svg>
