<svg xmlns="http://www.w3.org/2000/svg" xmlns:xlink="http://www.w3.org/1999/xlink" width="160.473" height="160.473" viewBox="0 0 160.473 160.473">
  <defs>
    <clipPath id="clip-path">
      <rect id="Rectangle_252" data-name="Rectangle 252" width="75.144" height="79.573" fill="#fff"/>
    </clipPath>
  </defs>
  <g id="Group_455" data-name="Group 455" transform="translate(-1045.345 -2459.53)">
    <ellipse id="Ellipse_9" data-name="Ellipse 9" cx="80.236" cy="80.236" rx="80.236" ry="80.236" transform="translate(1045.345 2459.53)" fill="#443992"/>
    <g id="Group_376" data-name="Group 376" transform="translate(1088.009 2495.594)">
      <g id="Group_375" data-name="Group 375" transform="translate(0 0)" clip-path="url(#clip-path)">
        <path id="Path_6472" data-name="Path 6472" d="M46.476,39.442a40.568,40.568,0,0,1,16.785,8.217c-15.933.45-24.014,20.176-11.824,31.914H.044A38.169,38.169,0,0,1,8,53.871c5.8-7.559,13.481-12.246,23.1-14.4-5.9-2.629-9.809-6.7-11.807-12.477a19.8,19.8,0,0,1-.136-12.673,20.4,20.4,0,0,1,38.877-.205,20.021,20.021,0,0,1-.87,14.852A20.991,20.991,0,0,1,46.476,39.442" transform="translate(0 0)" fill="#fff"/>
        <path id="Path_6473" data-name="Path 6473" d="M59.114,62.33c.361-.345.669-.629.965-.924,2.113-2.116,4.211-4.247,6.339-6.347a2.338,2.338,0,1,1,3.3,3.286q-4.356,4.4-8.758,8.76a2.344,2.344,0,0,1-3.661-.016q-3.233-3.187-6.418-6.418a2.34,2.34,0,1,1,3.28-3.288C55.8,59,57.423,60.64,59.114,62.33" transform="translate(4.558 4.941)" fill="#fff"/>
      </g>
    </g>
  </g>
</svg>
