<svg xmlns="http://www.w3.org/2000/svg" xmlns:xlink="http://www.w3.org/1999/xlink" width="159.734" height="160.785" viewBox="0 0 159.734 160.785">
  <defs>
    <clipPath id="clip-path">
      <rect id="Rectangle_255" data-name="Rectangle 255" width="96.462" height="86.496" fill="#fff"/>
    </clipPath>
  </defs>
  <g id="Group_454" data-name="Group 454" transform="translate(-777.036 -2459.53)">
    <ellipse id="Ellipse_8" data-name="Ellipse 8" cx="79.867" cy="80.392" rx="79.867" ry="80.392" transform="translate(777.036 2459.53)" fill="#443992"/>
    <g id="Group_382" data-name="Group 382" transform="translate(808.671 2495.594)">
      <g id="Group_381" data-name="Group 381" transform="translate(0 0)" clip-path="url(#clip-path)">
        <path id="Path_6480" data-name="Path 6480" d="M0,31.059a15.974,15.974,0,0,1,1.152-2.337A4.577,4.577,0,0,1,4.715,26.7c1.528-.082,3.063-.018,4.564-.018V52.039A43.475,43.475,0,0,1,3.9,51.69,4.76,4.76,0,0,1,.357,48.479C.245,48.2.119,47.919,0,47.638V31.059" transform="translate(0 -0.995)" fill="#fff"/>
        <path id="Path_6481" data-name="Path 6481" d="M78.085,38.352q0,17.515,0,35.03c0,2.113-1.256,3.419-3.135,3.222a3.334,3.334,0,0,1-1.313-.456Q61.213,68.79,48.818,61.379a1.4,1.4,0,0,1-.564-1.023q-.042-21.8,0-43.6a1.418,1.418,0,0,1,.565-1.029Q61.189,8.1,73.6.53c2.227-1.357,4.481.013,4.483,2.7q.01,17.562,0,35.124" transform="translate(-1.799 0)" fill="#fff"/>
        <path id="Path_6482" data-name="Path 6482" d="M41.293,20.318V58.482H40.232q-7.206,0-14.412,0A10.11,10.11,0,0,1,15.382,48.114q-.036-9.089,0-18.179c.021-5.059,3.036-8.777,7.71-9.577a6.148,6.148,0,0,1,1.03-.087q8.241-.007,16.483,0c.213,0,.426.028.686.046" transform="translate(-0.573 -0.757)" fill="#fff"/>
        <path id="Path_6483" data-name="Path 6483" d="M20.486,65.351c2.306.166,4.387.4,6.472.445,3.294.072,6.592.019,9.888.019h1.039c-.229.437-.374.74-.541,1.03q-5.786,10.02-11.577,20.038c-1.276,2.207-2.623,2.589-4.816,1.357q-3.814-2.142-7.625-4.289A2.825,2.825,0,0,1,12.134,79.8q4.12-7.18,8.277-14.339c.062-.107.141-.2.075-.11" transform="translate(-0.435 -2.437)" fill="#fff"/>
        <path id="Path_6484" data-name="Path 6484" d="M92.793,42.961c-1.317,0-2.633.014-3.95,0a2.813,2.813,0,1,1-.149-5.623c2.757-.057,5.518-.063,8.274,0a2.81,2.81,0,0,1-.133,5.617c-1.348.023-2.7,0-4.042,0" transform="translate(-3.206 -1.392)" fill="#fff"/>
        <path id="Path_6485" data-name="Path 6485" d="M91.393,63.342a6.315,6.315,0,0,1-1.618-.9c-1.931-1.832-3.8-3.731-5.661-5.636a2.8,2.8,0,0,1-.031-3.974,2.766,2.766,0,0,1,3.969-.036q2.934,2.846,5.78,5.783a2.632,2.632,0,0,1,.495,3.13c-.5,1.077-1.392,1.557-2.934,1.637" transform="translate(-3.107 -1.939)" fill="#fff"/>
        <path id="Path_6486" data-name="Path 6486" d="M86.429,28.105a2.9,2.9,0,0,1-2.884-1.653,2.57,2.57,0,0,1,.407-2.984C85.922,21.41,87.93,19.382,90,17.424a2.8,2.8,0,0,1,3.929,3.954c-1.962,2.067-3.988,4.074-6.052,6.04a4.342,4.342,0,0,1-1.449.687" transform="translate(-3.106 -0.625)" fill="#fff"/>
      </g>
    </g>
  </g>
</svg>
