<svg xmlns="http://www.w3.org/2000/svg" xmlns:xlink="http://www.w3.org/1999/xlink" width="160.473" height="160.473" viewBox="0 0 160.473 160.473">
  <defs>
    <clipPath id="clip-path">
      <rect id="Rectangle_251" data-name="Rectangle 251" width="85.438" height="86.162" fill="#fff"/>
    </clipPath>
  </defs>
  <g id="Group_452" data-name="Group 452" transform="translate(-240.416 -2459.53)">
    <ellipse id="Ellipse_6" data-name="Ellipse 6" cx="80.236" cy="80.236" rx="80.236" ry="80.236" transform="translate(240.416 2459.53)" fill="#443992"/>
    <g id="Group_374" data-name="Group 374" transform="translate(285.616 2495.594)">
      <g id="Group_373" data-name="Group 373" transform="translate(0)" clip-path="url(#clip-path)">
        <path id="Path_6465" data-name="Path 6465" d="M2.27,86.162A3.242,3.242,0,0,1,0,82.67Q.036,43.088.018,3.506C.018,1.006,1.033,0,3.544,0H61.18c2.488,0,3.514,1.032,3.515,3.533,0,4.74.014,9.478-.023,14.218a2.09,2.09,0,0,1-.532,1.3c-1.623,1.7-3.3,3.341-5.1,5.14V5.759H5.751V80.39H59v-.923c0-6.983-.01-13.966.023-20.948a2.083,2.083,0,0,1,.536-1.3c1.62-1.7,3.3-3.343,5.14-5.192v1.12c0,9.759-.023,19.518.021,29.277.008,1.756-.5,3.05-2.19,3.736Z" transform="translate(0 0)" fill="#fff"/>
        <path id="Path_6466" data-name="Path 6466" d="M92.837,23.6a6.838,6.838,0,0,1-2.049,4.386Q74.852,43.935,58.877,59.839a9.156,9.156,0,0,1-3.34,2c-2.663.939-5.4,1.672-8.121,2.433a1.534,1.534,0,0,1-1.279-.19,1.575,1.575,0,0,1-.207-1.3c.79-2.8,1.553-5.617,2.528-8.355A9,9,0,0,1,50.486,51.2Q66.249,35.317,82.111,19.535c3.216-3.208,8.073-2.51,9.983,1.436a15.231,15.231,0,0,1,.744,2.634" transform="translate(-7.4 -2.824)" fill="#fff"/>
        <path id="Path_6467" data-name="Path 6467" d="M34.688,19.235c-6,0-12,.021-18-.031a3.012,3.012,0,0,1-1.871-.712,2.071,2.071,0,0,1,.941-3.479,3.439,3.439,0,0,1,.994-.126q17.876-.01,35.751,0a2.3,2.3,0,0,1,2.553,1.922,2.189,2.189,0,0,1-2.28,2.423c-2.663.017-5.328.006-7.991.006H34.688" transform="translate(-2.288 -2.4)" fill="#fff"/>
        <path id="Path_6468" data-name="Path 6468" d="M34.655,28.7q8.918,0,17.836-.008a2.474,2.474,0,0,1,2.038.783,1.983,1.983,0,0,1,.409,2.114,2.193,2.193,0,0,1-1.814,1.441,5.6,5.6,0,0,1-.84.027H17.034c-1.761,0-2.831-.813-2.847-2.159-.016-1.371,1.069-2.2,2.885-2.2H34.655" transform="translate(-2.288 -4.628)" fill="#fff"/>
        <path id="Path_6469" data-name="Path 6469" d="M49.783,42.588c-1.425,1.425-2.753,2.774-4.115,4.087a1.222,1.222,0,0,1-.777.191q-14.083.014-28.166,0a2.3,2.3,0,0,1-2.471-1.721,2.108,2.108,0,0,1,1.157-2.376,2.429,2.429,0,0,1,1.046-.238q16.438-.018,32.875-.008c.1,0,.2.027.452.061" transform="translate(-2.29 -6.859)" fill="#fff"/>
        <path id="Path_6470" data-name="Path 6470" d="M38.768,56.373c-.477,1.325-.9,2.6-1.413,3.824a1.153,1.153,0,0,1-.9.44c-5.24.026-10.481.019-15.721.018-1.429,0-2.859.024-4.287-.013a2.154,2.154,0,1,1,.037-4.3q10.971-.016,21.943,0c.111,0,.221.021.342.034" transform="translate(-2.288 -9.087)" fill="#fff"/>
        <path id="Path_6471" data-name="Path 6471" d="M34.887,70.152c.1,1.445.2,2.821.305,4.261-.1.007-.346.034-.588.034-5.945,0-11.889-.005-17.833.009a2.365,2.365,0,0,1-2.133-.915,2.118,2.118,0,0,1,1.367-3.362,4.9,4.9,0,0,1,.837-.062q8.707-.005,17.413,0c.246,0,.491.027.632.035" transform="translate(-2.293 -11.309)" fill="#fff"/>
      </g>
    </g>
  </g>
</svg>
